<?xml version="1.0" encoding="UTF-8"?>
<svg id="Layer_1" data-name="Layer 1" xmlns="http://www.w3.org/2000/svg" xmlns:xlink="http://www.w3.org/1999/xlink" viewBox="0 0 250 250">
  <defs>
    <style>
      .cls-1 {
        fill: url(#Golden_Ring-2);
      }

      .cls-1, .cls-2, .cls-3, .cls-4, .cls-5 {
        stroke-width: 0px;
      }

      .cls-2 {
        fill: url(#Golden_Ring-3);
      }

      .cls-4 {
        fill: #f0f;
      }

      .cls-5 {
        fill: url(#Golden_Ring);
      }
    </style>
    <radialGradient id="Golden_Ring" data-name="Golden Ring" cx="151.12" cy="135.57" fx="151.12" fy="135.57" r="149" gradientUnits="userSpaceOnUse">
      <stop offset=".74" stop-color="#fff" stop-opacity="0"/>
      <stop offset=".76" stop-color="#fff" stop-opacity="0"/>
      <stop offset=".77" stop-color="#fff" stop-opacity=".04"/>
      <stop offset=".79" stop-color="#fff" stop-opacity=".1"/>
      <stop offset=".79" stop-color="#fff" stop-opacity=".18"/>
      <stop offset=".8" stop-color="#fff" stop-opacity=".28"/>
      <stop offset=".81" stop-color="#fff" stop-opacity=".4"/>
      <stop offset=".82" stop-color="#fff" stop-opacity=".5"/>
      <stop offset=".82" stop-color="#dbc01f"/>
      <stop offset=".83" stop-color="#f1dc3a"/>
      <stop offset=".84" stop-color="#f5e13f"/>
      <stop offset=".84" stop-color="#dbc01f"/>
      <stop offset=".85" stop-color="#e1ca45"/>
      <stop offset=".87" stop-color="#e9d876"/>
      <stop offset=".89" stop-color="#efe4a0"/>
      <stop offset=".91" stop-color="#f5eec2"/>
      <stop offset=".93" stop-color="#f9f5dd"/>
      <stop offset=".95" stop-color="#fcfaf0"/>
      <stop offset=".98" stop-color="#fefdfb"/>
      <stop offset="1" stop-color="#fff"/>
    </radialGradient>
    <radialGradient id="Golden_Ring-2" data-name="Golden Ring" cx="182.87" cy="131.48" fx="182.87" fy="131.48" r="12" xlink:href="#Golden_Ring"/>
    <radialGradient id="Golden_Ring-3" data-name="Golden Ring" cx="121.75" cy="111.06" fx="121.75" fy="111.06" r="26.9" xlink:href="#Golden_Ring"/>
  </defs>
  <g>
    <path class="cls-4" d="m17.12,40.25c71.8-8.56,144.38-10.46,216.53-5.67-49.18.72-97.88-13.98-146.95-10.66,12.58,69.11,14.73,140.1,6.37,209.85"/>
    <path class="cls-3" d="m17.12,52.25c28.05-3.34,56.22-5.67,84.43-6.98,28.22-1.31,56.48-1.6,84.72-.87,15.81.41,31.6,1.14,47.38,2.18v-24c-19.19.26-38.3-1.79-57.31-4.2-19.02-2.42-38.03-5.2-57.18-6.38-10.81-.66-21.65-.79-32.46-.07-3.88.26-7.02,1.62-9.42,4.73s-2.86,6.56-2.15,10.46c1.94,10.69,3.64,21.43,5.09,32.2l-.43-3.19c3.08,22.99,5.04,46.13,5.85,69.32.81,23.1.48,46.25-.99,69.32-.83,13.03-2.02,26.04-3.57,39.01-.34,2.84,1.59,6.56,3.51,8.49,2.08,2.08,5.5,3.65,8.49,3.51s6.32-1.16,8.49-3.51l1.88-2.43c1.09-1.87,1.63-3.89,1.64-6.06,3.26-27.3,4.93-54.79,4.99-82.29.06-27.5-1.49-55-4.65-82.31-1.87-16.21-4.23-32.37-7.15-48.43-3.86,5.06-7.71,10.13-11.57,15.19,19.11-1.27,38.25.15,57.24,2.34,19.08,2.2,38.07,5.15,57.2,6.89,10.81.98,21.66,1.57,32.51,1.42,3.1-.04,6.28-1.31,8.49-3.51,2.08-2.08,3.65-5.5,3.51-8.49s-1.16-6.32-3.51-8.49-5.17-3.3-8.49-3.51c-28.19-1.87-56.44-2.72-84.68-2.55s-56.49,1.36-84.65,3.56c-15.76,1.23-31.5,2.79-47.2,4.66-1.65-.06-3.19.28-4.62,1.03-1.49.48-2.78,1.31-3.86,2.48-2.08,2.08-3.65,5.5-3.51,8.49s1.16,6.32,3.51,8.49c2.18,2,5.4,3.88,8.49,3.51h0Z"/>
  </g>
  <path class="cls-3" d="m205.16,16.79c3.34,28.05,5.67,56.22,6.98,84.43,1.31,28.22,1.6,56.48.87,84.72-.41,15.81-1.14,31.6-2.18,47.38h24c-.26-19.19,1.79-38.3,4.2-57.31,2.42-19.02,5.2-38.03,6.38-57.18.66-10.81.79-21.65.07-32.46-.26-3.88-1.62-7.02-4.73-9.42s-6.56-2.86-10.46-2.15c-10.69,1.94-21.43,3.64-32.2,5.09l3.19-.43c-22.99,3.08-46.13,5.04-69.32,5.85s-46.25.48-69.32-.99c-13.03-.83-26.04-2.02-39.01-3.57-2.84-.34-6.56,1.59-8.49,3.51-2.08,2.08-3.65,5.5-3.51,8.49s1.16,6.32,3.51,8.49l2.43,1.88c1.87,1.09,3.89,1.63,6.06,1.64,27.3,3.26,54.79,4.93,82.29,4.99,27.5.06,55-1.49,82.31-4.65,16.21-1.87,32.37-4.23,48.43-7.15l-15.19-11.57c1.27,19.11-.15,38.25-2.34,57.24s-5.15,38.07-6.89,57.2c-.98,10.81-1.57,21.66-1.42,32.51.04,3.1,1.31,6.28,3.51,8.49,2.08,2.08,5.5,3.65,8.49,3.51s6.32-1.16,8.49-3.51,3.3-5.17,3.51-8.49c1.87-28.19,2.72-56.44,2.55-84.68-.17-28.25-1.36-56.49-3.56-84.65-1.23-15.76-2.79-31.5-4.66-47.2.06-1.65-.28-3.19-1.03-4.62-.48-1.49-1.31-2.78-2.48-3.86-2.08-2.08-5.5-3.65-8.49-3.51s-6.32,1.16-8.49,3.51c-2,2.18-3.88,5.4-3.51,8.49h0Z"/>
  <path class="cls-3" d="m240.07,204.41c-28.05,3.34-56.22,5.67-84.43,6.98-28.22,1.31-56.48,1.6-84.72.87-15.81-.41-31.6-1.14-47.38-2.18v24c19.19-.26,38.3,1.79,57.31,4.2,19.02,2.42,38.03,5.2,57.18,6.38,10.81.66,21.65.79,32.46.07,3.88-.26,7.02-1.62,9.42-4.73s2.86-6.56,2.15-10.46c-1.94-10.69-3.64-21.43-5.09-32.2l.43,3.19c-3.08-22.99-5.04-46.13-5.85-69.32-.81-23.1-.48-46.25.99-69.32.83-13.03,2.02-26.04,3.57-39.01.34-2.84-1.59-6.56-3.51-8.49-2.08-2.08-5.5-3.65-8.49-3.51s-6.32,1.16-8.49,3.51l-1.88,2.43c-1.09,1.87-1.63,3.89-1.64,6.06-3.26,27.3-4.93,54.79-4.99,82.29-.06,27.5,1.49,55,4.65,82.31,1.87,16.21,4.23,32.37,7.15,48.43,3.86-5.06,7.71-10.13,11.57-15.19-19.11,1.27-38.25-.15-57.24-2.34-19.08-2.2-38.07-5.15-57.2-6.89-10.81-.98-21.66-1.57-32.51-1.42-3.1.04-6.28,1.31-8.49,3.51-2.08,2.08-3.65,5.5-3.51,8.49s1.16,6.32,3.51,8.49,5.17,3.3,8.49,3.51c28.19,1.87,56.44,2.72,84.68,2.55s56.49-1.36,84.65-3.56c15.76-1.23,31.5-2.79,47.2-4.66,1.65.06,3.19-.28,4.62-1.03,1.49-.48,2.78-1.31,3.86-2.48,2.08-2.08,3.65-5.5,3.51-8.49s-1.16-6.32-3.51-8.49c-2.18-2-5.4-3.88-8.49-3.51h0Z"/>
  <path class="cls-3" d="m55.45,233.32c-3.34-28.05-5.67-56.22-6.98-84.43s-1.6-56.48-.87-84.72c.41-15.81,1.14-31.6,2.18-47.38h-24c.26,19.19-1.79,38.3-4.2,57.31s-5.2,38.03-6.38,57.18c-.66,10.81-.79,21.65-.07,32.46.26,3.88,1.62,7.02,4.73,9.42s6.56,2.86,10.46,2.15c10.69-1.94,21.43-3.64,32.2-5.09l-3.19.43c22.99-3.08,46.13-5.04,69.32-5.85,23.1-.81,46.25-.48,69.32.99,13.03.83,26.04,2.02,39.01,3.57,2.84.34,6.56-1.59,8.49-3.51,2.08-2.08,3.65-5.5,3.51-8.49s-1.16-6.32-3.51-8.49l-2.43-1.88c-1.87-1.09-3.89-1.63-6.06-1.64-27.3-3.26-54.79-4.93-82.29-4.99-27.5-.06-55,1.49-82.31,4.65-16.21,1.87-32.37,4.23-48.43,7.15l15.19,11.57c-1.27-19.11.15-38.25,2.34-57.24s5.15-38.07,6.89-57.2c.98-10.81,1.57-21.66,1.42-32.51-.04-3.1-1.31-6.28-3.51-8.49-2.08-2.08-5.5-3.65-8.49-3.51s-6.32,1.16-8.49,3.51-3.3,5.17-3.51,8.49c-1.87,28.19-2.72,56.44-2.55,84.68s1.36,56.49,3.56,84.65c1.23,15.76,2.79,31.5,4.66,47.2-.06,1.65.28,3.19,1.03,4.62.48,1.49,1.31,2.78,2.48,3.86,2.08,2.08,5.5,3.65,8.49,3.51s6.32-1.16,8.49-3.51c2-2.18,3.88-5.4,3.51-8.49h0Z"/>
  <path class="cls-5" d="m3.51,23.65c10.29-1.74,20.6-3.31,30.94-4.7l-3.19.43c23.63-3.17,47.39-5.41,71.2-6.72V-11.34c-18.76,2.31-37.76,4.49-55.82,10.31-5.71,1.84-11.29,4.08-16.74,6.58-3.32,1.52-5.27,5.36-5.73,8.77s.43,7.72,3.3,10.08c3.54,2.9,6.99,4.93,11.41,6.31,3.42,1.07,7.09,1.45,10.63,1.81,6.18.62,12.42.89,18.62,1.1,12.84.42,25.7.2,38.54-.33,25.74-1.07,51.42-3.39,77.16-4.44,14.42-.59,28.87-.77,43.29-.12l-3.19-23.57c-15.98,3.58-32.1,6.47-48.33,8.65l3.19-.43c-19.88,2.65-39.89,4.25-59.93,4.76-5.7.14-11.4.2-17.11.17l3.19,23.57c29.74-6.13,59.5-12.25,89.48-17.11,8.4-1.36,16.81-2.62,25.24-3.76l-3.19.43c21.98-2.95,44.08-5.03,66.25-5.74l-3.19-23.57c-9.99,3.68-20.44,5.78-30.97,7.21l3.19-.43c-14.7,1.96-29.55,3.01-44.33,4.16-15.16,1.18-30.33,2.19-45.51,3.03-8.62.48-17.25.9-25.87,1.27l3.19,23.57c17.96-4.12,36.11-7.41,54.37-9.88l-3.19.43c8.4-1.13,16.83-2.08,25.27-2.85,3.25-.3,6.11-1.14,8.49-3.51,2.08-2.08,3.65-5.5,3.51-8.49-.3-6.69-5.27-11.76-12-12-34.35-1.21-68.71-1.9-103.08-2.06-9.7-.05-19.4-.05-29.1-.01v24c26.43-1.69,52.9-2.82,79.39-3.36,6.83-.14,13.69-.38,20.48.53l-3.19-.43c3.6.52,7.12,1.37,10.49,2.78l-2.87-1.21c.61.27,1.21.54,1.8.84l2.87-21.93C169.52-.42,146.58,5.41,123.64,11.24c-4.9,1.25-9.04,6.42-8.81,11.57s3.55,10.16,8.81,11.57c28.43,7.63,58.08,6.69,87.22,8.18,7.99.41,15.98,1.02,23.92,2.08l-3.19-.43c12.07,1.64,24.08,4.33,35.36,8.99l-2.87-1.21c1.7.72,3.33,1.53,4.81,2.65l-2.43-1.88c.65.52,1.23,1.08,1.76,1.72l-1.88-2.43c.5.66.9,1.35,1.23,2.11l-1.21-2.87c.22.61.38,1.21.48,1.85l-.43-3.19c.08.75.07,1.48-.03,2.23l.43-3.19c-.15.89-.4,1.73-.75,2.56l1.21-2.87c-.51,1.11-1.15,2.13-1.89,3.1l1.88-2.43c-.99,1.22-2.1,2.29-3.34,3.26l2.43-1.88c-1.48,1.11-3.04,1.99-4.74,2.71l2.87-1.21c-2.63,1.07-5.36,1.8-8.17,2.2l3.19-.43c-3.24.43-6.49.43-9.74,0l3.19.43c-3.24-.46-6.38-1.32-9.39-2.59l2.87,1.21c-2.6-1.13-5.04-2.55-7.3-4.27l2.43,1.88c-1.86-1.45-3.52-3.07-4.98-4.93l1.88,2.43c-1.42-1.87-2.61-3.88-3.53-6.04l1.21,2.87c-.71-1.75-1.23-3.54-1.51-5.41l.43,3.19c-.2-1.56-.23-3.1-.06-4.66l-.43,3.19c.18-1.28.49-2.51.97-3.72l-1.21,2.87c.36-.86.79-1.66,1.29-2.44-7.45-2.02-14.91-4.04-22.36-6.06,2.58,26.03,6.7,51.92,12.52,77.42,1.59,6.96,3.31,13.89,5.14,20.8,1.23,4.61,5.34,7.97,9.98,8.6,2.2.29,4.18.04,6.22-.82,2.21-.93,4.7-2.65,5.74-4.91,8.37-18.15,15.78-37.16,16.38-57.4.18-5.99-.45-11.98-1.55-17.87l-1.21-2.87-1.88-2.43c-1.88-1.88-4.29-2.95-6.89-3.3-4.69-.63-9.53,1.55-11.96,5.73-11.77,20.33-18.74,42.91-21.08,66.23-.61,6.1-.84,12.23-.7,18.36s4.46,10.99,10.4,11.79c5.84.78,11.56-2.8,13.17-8.6,4.78-17.26,8.76-34.74,11.91-52.38,1.73-9.7,3.17-19.43,4.46-29.2,1.13-8.59,2.19-17.22,2.42-25.88.28-10.35-.67-21.02-3.9-30.9-1.59-4.86-6.17-9.05-11.57-8.81s-10.13,3.56-11.57,8.81c-4.31,15.66-3.64,32.28-3.79,48.37-.15,15.84-.3,31.67-.45,47.51-.09,9.05-.17,18.1-.26,27.15-.03,3.06,1.36,6.33,3.51,8.49s5.5,3.65,8.49,3.51c6.71-.3,11.74-5.27,12-12,.56-14.44,1.12-28.89,1.68-43.33.28-7.27.56-14.54.85-21.81.26-6.82.6-13.64.47-20.46-.16-8.44-1.03-17.03-3.32-25.17-1.37-4.89-6.32-9.04-11.57-8.81s-10.33,3.54-11.57,8.81c-5.26,22.33-8.64,45.15-10.16,68.03-1.47,22.01-1.12,44.15,1.06,66.1,1.31,13.25,3.22,26.46,5.75,39.53l1.21,2.87c.75,1.4,1.78,2.52,3.09,3.37,2.02,1.56,4.64,2.69,7.27,2.58,2.13-.1,4.17-.64,6.06-1.64,2.36-1.25,5.04-4.49,5.51-7.17,3.27-18.59,2.42-37.73-3.36-55.77-1.56-4.86-6.19-9.05-11.57-8.81-2.13.1-4.17.64-6.06,1.64-2.88,1.52-4.37,4.3-5.51,7.17-6.73,16.94-6.88,35.84-5.34,53.75.42,4.94.97,9.86,1.53,14.78.37,3.28,1.09,6.06,3.51,8.49,2.08,2.08,5.5,3.65,8.49,3.51s6.32-1.16,8.49-3.51,3.26-5.16,3.51-8.49c.7-9.03.53-18.1-.49-27.1-.36-3.14-1.06-6.23-3.51-8.49-1.98-1.82-4.21-2.94-6.89-3.3-5.63-.76-11.85,2.74-13.17,8.6-2.43,10.8-4.13,21.76-5.24,32.78-.51,5.11-.87,10.24-1.06,15.37-.17,4.64-.35,9.33.1,13.95.63,6.49,1.97,13.18,5.91,18.56,1.07,1.8,2.5,3.24,4.31,4.31,1.87,1.09,3.89,1.63,6.06,1.64,3.9,0,8.65-2.21,10.36-5.94,5-10.92,9.26-22.17,12.4-33.76s5.18-23.53,6.38-35.51c.62-6.24.94-12.5.97-18.77s-4.59-11-10.4-11.79c-2.56-.34-5.42-.02-7.65,1.42-2.78,1.79-4.32,4.1-5.51,7.17-9.37,24.06-15.21,49.22-18.06,74.87-.78,7.06-1.29,14.14-1.55,21.24-.07,1.98.65,4.36,1.64,6.06,1.32,2.26,3.36,3.91,5.74,4.91,2.04.86,4.02,1.11,6.22.82,2.35-.32,5.37-1.34,6.89-3.3,3.6-4.64,6.99-9.35,9.87-14.47s5.24-10.5,7.31-15.97c1.74-4.59,3.13-9.3,4.15-14.1.52-2.44.94-4.89,1.27-7.36.42-3.07,1.14-6.4.84-9.52s-.71-5.41-2.16-8.09c-1.3-2.41-3.36-4.56-5.71-5.97-5.25-3.15-11.26-2.54-16.57.02-2.94,1.42-5.4,3.78-7.77,5.99-1.8,1.67-3.55,3.38-5.26,5.13-7.39,7.55-14.07,15.88-19.96,24.64-6.65,9.89-11.95,20.47-16.42,31.5l-.43,3.19.43,3.19c.7,2.53,2.25,4.65,4.3,6.23,1.72,1.33,3.52,2.07,5.68,2.36,2.45.33,5.56.08,7.65-1.42,10.05-7.27,19.29-15.48,27.91-24.38,4.02-4.15,7.91-8.42,11.76-12.74,1.92-2.16,3.83-4.33,5.73-6.5,2.36-2.7,5.15-5.4,6.85-8.56,3.26-6.04,2.98-14.14-2.5-18.89-3.79-3.29-8.52-4.65-13.49-4.25-6.12.49-12.24,1.37-18.23,2.7-10.97,2.42-21.66,6.51-31.6,11.72-11.14,5.84-21.49,13.54-30.37,22.46-3.42,3.44-4.34,8.69-2.48,13.11s6.14,7.32,10.97,7.38c18.63.23,35.79-7.3,52.43-14.78-4.85-6.28-9.69-12.56-14.54-18.85-5.45,5.97-11.39,11.46-17.78,16.41l2.43-1.88c-7.04,5.43-14.58,10.18-22.51,14.18,4.85,6.28,9.69,12.56,14.54,18.85,21.37-18.71,42.73-37.43,64.1-56.14,3.35-2.94,6.44-5.66,8.99-9.39,3.78-5.52,4.35-13.07.86-18.87-1.35-2.25-3.34-3.9-5.74-4.91-2.63-1.11-4.98-1.11-7.81-.6-26.22,4.69-51.05,14.71-75.26,25.52-6.61,2.95-13.18,5.98-19.74,9.01l12.11,20.72c21.49-11.76,42.98-23.52,64.47-35.28,6.12-3.35,12.23-6.69,18.35-10.04-4.85-6.28-9.69-12.56-14.54-18.85-.56.43-1.11.86-1.67,1.29l2.43-1.88c-23.13,17.84-47.37,34.23-72.55,49.03-7.13,4.19-14.34,8.25-21.61,12.18,4.85,6.28,9.69,12.56,14.54,18.85,20.33-24.65,44.29-45.97,69.13-65.95,7.03-5.65,14.14-11.21,21.28-16.73l-2.43,1.88c4.71-3.64,9.43-7.26,14.16-10.88,1.4-.75,2.52-1.78,3.37-3.09,1.06-1.16,1.78-2.52,2.15-4.08.79-2.87.43-6.7-1.21-9.25-3.59-5.57-10.54-7.56-16.42-4.31-28.6,15.83-57.2,31.67-85.81,47.5-7.57,4.19-15.06,8.77-23.02,12.19l2.87-1.21c-3.68,1.55-7.46,2.76-11.42,3.35l3.19-.43c-.82.11-1.65.19-2.48.25l8.49,20.49c14.36-12.93,29.09-25.45,44.18-37.52,4.29-3.43,8.61-6.83,12.96-10.19l-2.43,1.88c15.57-12.03,31.5-23.6,47.76-34.69-4.85-6.28-9.69-12.56-14.54-18.85-19.41,18.63-39.6,36.45-60.5,53.39-5.85,4.74-11.76,9.42-17.72,14.02,6.28,4.85,12.56,9.69,18.85,14.54.68-.91,1.37-1.82,2.06-2.72l-1.88,2.43c11.53-14.91,25.05-28.14,39.49-40.22,4.13-3.45,8.34-6.81,12.59-10.11l-2.43,1.88c13.33-10.29,27.17-19.89,41.05-29.41l-12.11-20.72c-16.96,12.74-34.79,24.33-53.33,34.64-5.16,2.86-10.33,5.79-15.77,8.09l2.87-1.21c-3.29,1.36-6.66,2.43-10.2,2.91l3.19-.43c-2.17.26-4.32.27-6.49,0,3.45,6.02,6.91,12.04,10.36,18.06,4.84-7.88,10.09-15.49,15.73-22.81l-1.88,2.43c10.59-13.69,22.52-26.34,35.6-37.68,3.73-3.23,7.55-6.36,11.45-9.38l-2.43,1.88c7.44-5.74,15.19-11.08,23.21-15.98-4.85-6.28-9.69-12.56-14.54-18.85-14.96,15-30.88,29.03-47.64,41.99l2.43-1.88c-14.38,11.09-29.35,21.4-44.86,30.85-4.45,2.71-8.95,5.35-13.48,7.92,4.85,6.28,9.69,12.56,14.54,18.85,16.71-19.76,34.14-39.01,53.52-56.2,5.43-4.82,11.02-9.46,16.76-13.9l-2.43,1.88c2.68-2.06,5.39-4.08,8.13-6.06-5.47-5.47-10.95-10.95-16.42-16.42-14.17,20.03-28.35,40.06-42.52,60.09-4.03,5.7-8.07,11.4-12.1,17.1,6.91,4.04,13.82,8.08,20.72,12.11,7.55-11.09,15.13-22.16,23.32-32.78l-1.88,2.43c10.65-13.78,22.39-26.81,36.18-37.52l-2.43,1.88c2.38-1.84,4.82-3.61,7.31-5.3-5.47-5.47-10.95-10.95-16.42-16.42-10.11,19.32-21.49,37.97-34.06,55.79-3.58,5.08-7.27,10.09-11.04,15.03,6.91,4.04,13.82,8.08,20.72,12.11,12.95-22.85,25.89-45.7,38.84-68.55,3.63-6.41,7.26-12.82,10.9-19.23l-21.93-9.25c-3.72,19.03-8.95,37.76-15.67,55.95-1.89,5.13-3.9,10.21-6.02,15.24l1.21-2.87c-1.92,4.55-3.93,9.05-6.03,13.52,7.45,2.02,14.91,4.04,22.36,6.06-.94-11.03,0-22.07,1.47-33.01l-.43,3.19c2.85-21.08,7.7-42.48,4.88-63.83l-.43-3.19c-.37-1.56-1.09-2.92-2.15-4.08-1.53-1.98-3.72-3.73-6.23-4.3-5.32-1.21-10.63.85-13.55,5.51-12.29,19.62-22.38,40.58-30.37,62.31-2.17,5.9-4.15,11.85-5.97,17.87,7.86,1.06,15.71,2.13,23.57,3.19-.68-10.68,0-21.37,1.42-31.97l-.43,3.19c1.78-13.03,4.65-25.88,7.55-38.7,1.33-5.88-1.31-11.78-6.95-14.16s-11.93-.28-14.99,4.91c-11.44,19.47-24.1,38.2-37.9,56.08l1.88-2.43c-1.2,1.55-2.4,3.09-3.61,4.62,6.83,2.83,13.66,5.66,20.49,8.49.13-2.69.38-5.37.74-8.04l-.43,3.19c1.13-8.18,3.33-16.16,6.52-23.78l-1.21,2.87c1.82-4.28,3.82-8.78,6.62-12.53l-1.88,2.43c.56-.7,1.15-1.34,1.83-1.92l-2.43,1.88c.56-.43,1.13-.8,1.78-1.09l-2.87,1.21c.49-.19.97-.32,1.48-.42l-3.19.43c.65-.08,1.26-.09,1.9-.01l-3.19-.43c.38.07.72.16,1.08.29l-2.87-1.21c.35.15.65.31.96.52l-2.43-1.88c.3.24.54.48.8.77l-1.88-2.43c.24.33.43.66.6,1.02l-1.21-2.87c.41.98.6,2.01.75,3.06l-.43-3.19c.31,2.38.38,4.85,1.08,7.15,1.19,3.89,3.63,7.29,7.22,9.3,1.65.92,3.18,1.35,4.99,1.6,3.82.51,7.21-.74,10.08-3.3.91-.81,1.79-1.67,2.68-2.51,1.78-1.68,3.53-3.38,5.27-5.1,6.96-6.88,13.63-14.05,19.99-21.48,3.63-4.25,7.16-8.59,10.59-13.01l-20.06-11.68c-2.07,6.25-4.39,12.42-6.95,18.49l1.21-2.87c-4.73,11.18-10.27,21.99-16.57,32.37l21.93,9.25c5.63-16.78,11.26-33.55,16.88-50.33l.43-3.19c.06-1.65-.28-3.19-1.03-4.62-.97-2.31-2.63-4.54-4.91-5.74-1.89-1-3.93-1.54-6.06-1.64-2.66-.12-6.77,1.36-8.49,3.51-12.89,16.18-25.78,32.35-38.67,48.53,6.28,4.85,12.56,9.69,18.85,14.54,10.89-20.53,21.78-41.06,32.66-61.58,2.82-5.32,1.74-11.75-3.09-15.48s-11.58-3.4-15.76.94c-17.41,18.08-34.82,36.16-52.23,54.25-4.97,5.17-9.95,10.33-14.92,15.5l20.06,11.68.19-.45-1.21,2.87c5.25-12.37,12.53-23.71,20.71-34.33l-1.88,2.43c8.16-10.56,17.16-20.43,26.17-30.26,2.14-2.33,3.51-5.27,3.51-8.49,0-2.94-1.31-6.46-3.51-8.49s-5.29-3.66-8.49-3.51-6.29,1.17-8.49,3.51c-10.06,10.77-20.99,20.71-32.65,29.73l2.43-1.88c-7.7,5.93-15.7,11.44-23.98,16.52,5.88,2.39,11.75,4.78,17.63,7.17l-.07-.45.43,3.19c-.07-.75-.06-1.46.02-2.21l-.43,3.19c.16-1.04.45-2,.85-2.97l-1.21,2.87c.7-1.56,1.62-2.98,2.66-4.34l-1.88,2.43c2.37-3.04,5.05-5.86,7.61-8.74,2.8-3.14,5.6-6.28,8.4-9.42,5.54-6.2,11.1-12.39,16.67-18.57,4.03-4.47,4.7-10.89.94-15.76s-10.31-6.19-15.48-3.09c-17.91,10.75-35.83,21.5-53.74,32.25,5.47,5.47,10.95,10.95,16.42,16.42.88-1.31,1.8-2.59,2.76-3.84l-1.88,2.43c5.52-7.13,12.22-13.19,19.33-18.7l-2.43,1.88c5.42-4.17,11.06-8.04,16.71-11.89-5.47-5.47-10.95-10.95-16.42-16.42-1.27,1.96-2.63,3.87-4.06,5.73l1.88-2.43c-4.33,5.54-9.33,10.5-14.89,14.82l2.43-1.88c-5.7,4.37-11.9,8.02-18.5,10.84l2.87-1.21c-4.18,1.76-8.49,3.19-12.9,4.25l14.76,14.76c.9-3.04,1.98-6.02,3.21-8.94l-1.21,2.87c5.46-12.84,13.59-24.25,21.68-35.53,1.72-2.39,1.96-6.52,1.21-9.25s-2.92-5.8-5.51-7.17c-2.78-1.47-6.16-2.21-9.25-1.21l-2.87,1.21c-1.8,1.07-3.24,2.5-4.31,4.31-8.93,12.31-17.86,24.61-26.8,36.92l21.93,9.25c4.72-12.28,9.44-24.56,14.16-36.84,1.01-2.63.28-6.93-1.21-9.25s-3.28-3.87-5.74-4.91-5.28-1.42-7.81-.6l-2.87,1.21c-1.8,1.07-3.24,2.5-4.31,4.31-8.9,12.12-17.81,24.24-26.71,36.36l21.93,9.25c2-9.88,4.01-19.75,6.01-29.63.55-2.72.49-5.22-.6-7.81-.97-2.31-2.63-4.54-4.91-5.74-4.64-2.45-10.78-2.09-14.54,1.88-11.36,11.98-21.55,25.19-30.25,39.23,7.45,2.02,14.91,4.04,22.36,6.06,1.31-15.34,2.62-30.67,3.93-46.01l-.43-3.19-1.21-2.87c-1.32-2.26-3.36-3.91-5.74-4.91-2.04-.86-4.02-1.11-6.22-.82-2.41.32-5.29,1.34-6.89,3.3-2.84,3.46-5.47,7.05-7.63,10.98s-3.91,8.09-5.5,12.27c-2.6,6.81-4.43,13.89-6.22,20.95,7.86,1.06,15.71,2.13,23.57,3.19.62-8.2,1.25-16.41,1.87-24.61l-.43-3.19-1.21-2.87c-1.32-2.26-3.36-3.91-5.74-4.91-4.29-1.81-9.81-1.03-13.11,2.48-6.69,7.13-13.39,14.27-20.08,21.4l20.06,11.68c4.99-12.57,8.55-25.66,10.62-39.03l.43-3.19c.06-1.65-.28-3.19-1.03-4.62-.97-2.31-2.63-4.54-4.91-5.74-4.7-2.49-10.69-2.03-14.54,1.88-9.57,9.73-15.74,21.85-21.54,34.03,7.45,2.02,14.91,4.04,22.36,6.06-.52-7.38-1.05-14.76-1.57-22.13-.31-4.31-2.09-8.11-5.94-10.36-1.87-1.09-3.89-1.63-6.06-1.64-2.17,0-4.18.55-6.06,1.64-3.62,2.79-6.59,5.54-8.98,9.52-1.78,2.97-3.18,6.44-3.68,9.89,7.86,1.06,15.71,2.13,23.57,3.19-.18-4.21-.36-8.42-.54-12.63-.21-4.85-2.85-9.06-7.38-10.97-2.04-.86-4.02-1.11-6.22-.82-2.37.32-5.34,1.34-6.89,3.3C-.18,23.43-4.31,29.52-7.49,36.34c7.31.96,14.62,1.91,21.93,2.87-.09-.54-.17-1.08-.24-1.62l.43,3.19c-.71-5.44-.71-10.91,0-16.35H-9.36c-.33,6.96-.29,13.95.39,20.89.75,7.63,1.95,15.28,4.37,22.58,2.35,7.1,5.54,14.11,10.04,20.12,5.91,7.91,13.02,14.88,22.79,17.67,8.12,2.32,17.04,1.71,25.34.81,8.25-.9,16.43-2.3,24.48-4.3,14.65-3.64,28.82-8.96,42.87-14.44,15.86-6.19,31.65-12.63,48.01-17.38l-14.76-14.76c-7,21.57-13.99,43.14-20.99,64.71-.9,2.76-.36,6.81,1.21,9.25,1.44,2.23,3.28,3.87,5.74,4.91,5.46,2.31,11.92.27,14.99-4.91,8.69-14.67,14.94-31,18.02-47.78.79-4.32.14-8.45-3.09-11.68s-7.43-4.02-11.68-3.09c-6.99,1.55-12.12,6.64-16.33,12.09-3.7,4.79-7.29,9.66-10.77,14.61-6.48,9.23-12.58,18.74-18.27,28.48-3.22,5.51-6.31,11.1-9.27,16.76-2.79,5.34-1.76,11.74,3.09,15.48,2.02,1.56,4.64,2.69,7.27,2.58,3.01-.13,6.47-1.1,8.49-3.51,5.9-7.06,12.01-13.94,18.34-20.62,3.13-3.31,6.32-6.56,9.55-9.77s6.11-6.22,9.53-8.88l-2.43,1.88c1.34-1,2.72-1.88,4.25-2.56l-2.87,1.21c1.11-.45,2.22-.76,3.41-.93l-3.19.43c.3-.03.6-.06.9-.07-3.45-1.98-6.91-3.96-10.36-5.94.34.47.61.94.84,1.47l-1.21-2.87c.19.54.32,1.06.41,1.62l-.43-3.19c.11,1.03.07,2.03-.06,3.05l.43-3.19c-.73,4.63-2.51,9.19-3.86,13.67-1.46,4.87-2.93,9.73-4.39,14.6-2.9,9.64-5.8,19.28-8.69,28.93-1.65,5.5-3.3,10.99-4.96,16.49-1.39,4.61.6,9.76,4.3,12.61s9.27,3.54,13.33.94c9.9-6.34,19.16-13.81,27.33-22.27-6.28-4.85-12.56-9.69-18.85-14.54-6.79,10.08-13.24,20.39-19.32,30.92-2.57,4.45-2.03,10.96,1.88,14.54,1.53,1.41,3.32,2.45,5.3,3.09,2.61.84,6.97.45,9.25-1.21,5.2-3.78,10.39-7.56,15.59-11.34l-18.06-10.36c.34,3.28.08,6.55-.35,9.81l.43-3.19c-.68,4.89-1.63,9.73-2.1,14.65s-.19,9.84,1.37,14.33c1.7,4.91,4.39,9.53,8.32,12.99,4.05,3.56,8.27,5.8,13.23,7.78,3.72,1.48,7.65,2.37,11.6,2.96v-23.14c-12.04,4.26-24.19,8.2-36.45,11.81-5.75,1.7-9.39,7.25-8.6,13.17.75,5.57,5.81,10.78,11.79,10.4,10-.63,20.07-1.2,30.05.11l-3.19-.43c5.17.71,10.23,1.95,15.07,3.94v-23.14c-4.79,1.57-9.7,2.7-14.7,3.4l3.19-.43c-7.42.99-14.92,1.01-22.34.06l3.19.43c-3.1-.42-6.17-1-9.21-1.76v23.14c6.74-1.08,13.48-2.16,20.22-3.23,2.67-.43,5.94-3.19,7.17-5.51s1.79-4.92,1.42-7.65c-.34-2.52-1.37-5.12-3.3-6.89-2.22-2.04-5.36-3.8-8.49-3.51-20.01,1.84-40.14,2.27-60.21,1.3v24c11.87-1.24,23.84-1.16,35.7.23l-3.19-23.57c-4.45,1.19-8.96,2.09-13.53,2.71l3.19-.43c-9.5,1.24-19.1,1.23-28.59-.04l3.19.43c-3.16-.44-6.29-1.01-9.4-1.72l-3.19,23.57c10.79-1.34,21.7-1.29,32.48.16l-3.19-.43c.91.13,1.82.26,2.73.4l3.19-23.57c-20.13,1.62-40.37,1.93-60.54.89-5.79-.3-11.57-.71-17.35-1.23v24c7.85-.34,15.7,0,23.49,1.02l-3.19-.43c4.71.63,9.37,1.51,13.99,2.62l3.19-23.57c-16.64,1.94-33.48,1.8-50.09-.41l3.19.43c-6.31-.86-12.58-2-18.79-3.44v23.14c4.13-1.6,8.4-2.72,12.78-3.35l-3.19.43c2.1-.28,4.21-.45,6.33-.51l-3.19-23.57c-9.72,3.6-19.65,6.58-29.75,8.93l15.19,11.57c-.37-14.73-.02-29.47,1.05-44.17.21-2.81-1.46-6.6-3.51-8.49s-4.21-2.94-6.89-3.3-5.42-.02-7.65,1.42c-2.76,1.78-4.37,4.1-5.51,7.17-2.91,7.8-4.45,15.98-5.13,24.26-.23,2.79,1.48,6.61,3.51,8.49s4.21,2.94,6.89,3.3c5.95.8,11.41-2.83,13.17-8.6,6.17-20.29,8.4-42.02,6.26-63.12-.21-2.11-.55-4.19-1.64-6.06-1.32-2.26-3.36-3.91-5.74-4.91-2.04-.86-4.02-1.11-6.22-.82-2.42.33-5.26,1.35-6.89,3.3-5.92,7.11-10.42,15.3-12.31,24.43-.66,3.17-.46,6.39,1.21,9.25,1.46,2.49,4.31,4.86,7.17,5.51,3.07.7,6.52.55,9.25-1.21,2.59-1.67,4.77-4.11,5.51-7.17,5.01-20.53,8.74-41.3,11.49-62.24.74-5.65,1.39-11.31,1.96-16.98l-.43-3.19c-.37-1.56-1.09-2.92-2.15-4.08-1.53-1.98-3.72-3.73-6.23-4.3-2.11-.48-4.27-.48-6.38,0-2.58.59-6.05,3.05-7.17,5.51-3.07,6.77-6.15,13.53-9.22,20.3,7.45,2.02,14.91,4.04,22.36,6.06,1.57-15.2,3.14-30.39,4.71-45.59l-.43-3.19c-.37-1.56-1.09-2.92-2.15-4.08-1.53-1.98-3.72-3.73-6.23-4.3-2.11-.48-4.27-.48-6.38,0-2.55.58-6.09,3.05-7.17,5.51-1.6,3.64-3.21,7.29-4.81,10.93,7.45,2.02,14.91,4.04,22.36,6.06-.41-7.58-.11-15.17.88-22.7l-.43,3.19c.54-3.94,1.26-7.84,2.17-11.71-7.71-2.13-15.43-4.25-23.14-6.38-2.74,12.24-4.01,24.89-3.49,37.43.2,4.85,2.85,9.06,7.38,10.97,2.04.86,4.02,1.11,6.22.82,2.36-.32,5.36-1.34,6.89-3.3,4.37-5.59,8.73-11.18,13.1-16.77,2.13-2.72,4.25-5.44,6.38-8.17s3.9-5.54,6.45-7.65l-2.43,1.88c.58-.44,1.16-.81,1.83-1.11l-2.87,1.21c.39-.14.74-.24,1.15-.3l-3.19.43c.26-.03.52-.03.77,0l-3.19-.43c.26.03.52.09.77.17l-2.87-1.21.38.16-5.94-10.36c-2.02,18.11-4.05,36.22-6.07,54.33l.43,3.19c.37,1.56,1.09,2.92,2.15,4.08,1.53,1.98,3.72,3.73,6.23,4.3,5.12,1.17,10.9-.74,13.55-5.51,8.4-15.12,16.87-30.29,27.44-44.03l-1.88,2.43c4.42-5.71,9.18-11.14,14.4-16.15l-20.06-11.68c-8.55,24.04-17.1,48.08-25.65,72.12-2.41,6.77-4.81,13.53-7.22,20.3-.96,2.69-.32,6.87,1.21,9.25,1.44,2.23,3.28,3.87,5.74,4.91s5.28,1.42,7.81.6c3.1-1,5.32-2.83,7.17-5.51,8.37-12.17,16.75-24.34,25.77-36.04l-1.88,2.43c10.23-13.23,21.29-25.84,33.9-36.87-6.83-2.83-13.66-5.66-20.49-8.49-.05.86-.14,1.72-.25,2.57l.43-3.19c-.69,4.81-2.32,9.38-4.19,13.85l1.21-2.87c-8.02,18.99-16.62,37.75-24.93,56.61-1.29,2.92-2.25,6.03-1.21,9.25.82,2.53,2.19,4.6,4.3,6.23s4.64,2.69,7.27,2.58c2.94-.13,6.59-1.07,8.49-3.51,14.45-18.64,29.8-36.58,46-53.73,4.63-4.9,9.32-9.73,14.08-14.5-5.66-5.66-11.31-11.31-16.97-16.97-14.04,17.99-28.07,35.99-42.11,53.98-3.94,5.06-7.89,10.11-11.83,15.17,6.28,4.85,12.56,9.69,18.85,14.54,9.17-16.39,17.67-33.16,25.45-50.26,2.22-4.87,4.37-9.77,6.48-14.7.88-1.38,1.35-2.86,1.42-4.46.36-1.6.29-3.19-.21-4.79-.77-2.78-2.92-5.8-5.51-7.17-5.55-2.93-13.28-1.62-16.42,4.31-8.92,16.83-16.12,34.68-21.2,53.04-1.39,5.02-2.61,10.08-3.69,15.17-.81,3.84-.27,7.33,2.15,10.46s5.53,4.44,9.42,4.73c4.97.37,9.36-2.08,13.01-5.16,2.44-2.06,4.21-4.9,6.03-7.49,3.42-4.87,6.84-9.74,10.26-14.61,6.73-9.58,13.46-19.17,20.19-28.75,3.85-5.49,7.71-10.97,11.56-16.46-6.91-4.04-13.82-8.08-20.72-12.11-7.87,14.41-15.73,28.81-23.6,43.22-2.89,5.28-1.69,11.78,3.09,15.48s11.4,3.24,15.76-.94c10.86-10.42,20.98-21.59,30.29-33.41,1.96-2.49,3.67-5.13,3.51-8.49-.12-2.71-.91-5.11-2.58-7.27-3.47-4.49-10.46-6.4-15.48-3.09-7.29,4.81-14.59,9.63-21.88,14.44-3.61,2.38-7.22,4.76-10.82,7.14-3.4,2.24-6.76,4.92-10.51,6.54l2.87-1.21c-.85.34-1.7.59-2.61.72l3.19-.43c-.44.04-.85.04-1.28.01l3.19.43c-.58-.08-1.1-.22-1.65-.45l2.87,1.21-.39-.21,5.51,13.55c7.06-17.15,14.13-34.3,21.19-51.44,1.58-3.82-.34-8.93-3.09-11.68-3.08-3.08-7.49-4.14-11.68-3.09-8.1,2.03-14.94,7.06-20.91,12.71-4.8,4.55-9.14,9.61-14.37,13.7l2.43-1.88c-2.25,1.73-4.65,3.25-7.27,4.38l2.87-1.21c-1.1.46-2.22.84-3.37,1.15,4.52,5.88,9.03,11.75,13.55,17.63,8.21-16.6,15.66-33.58,22.44-50.81l.43-3.19-.43-3.19c-.7-2.53-2.25-4.65-4.3-6.23-3.82-2.95-9.09-3.34-13.33-.94-11.39,6.47-20.04,17.73-23.29,30.43-1.27,4.97.79,11.06,5.51,13.55s10.61,1.97,14.54-1.88c2.07-2.02,4.14-4.05,6.21-6.07-6.69-1.77-13.37-3.53-20.06-5.3,2.91,15.67,8.25,30.87,15.46,45.08,3.57,7.04,7.86,13.93,13.55,19.47,4.86,4.73,10.62,8.61,16.64,11.7,6.86,3.52,14.09,6.28,21.19,9.27l-2.87-1.21c7.24,3.06,14.43,6.39,20.7,11.2l-2.43-1.88c.97.76,1.92,1.55,2.84,2.38l2.43-18.85c-3.9,2.69-8.05,4.96-12.4,6.81l2.87-1.21c-5.58,2.33-11.41,3.93-17.39,4.76l3.19-.43c-.97.13-1.94.24-2.91.33,3.45,6.02,6.91,12.04,10.36,18.06,3.04-4.52,6.22-8.95,9.55-13.27l-1.88,2.43c7.71-9.97,16.16-19.35,25.29-28.05,4.34-4.13,4.48-11.17.94-15.76-1.53-1.98-3.72-3.73-6.23-4.3-3.27-.74-6.24-.29-9.25,1.21-18.94,9.47-36.98,20.68-53.84,33.49-2.48,1.88-4.78,3.96-5.51,7.17-.61,2.68-.47,5.27.6,7.81,2.24,5.31,8.41,8.74,14.16,6.95,12.36-3.85,24.31-9.36,35.11-16.5,5.02-3.32,7.31-9.31,4.91-14.99s-8.22-8.2-14.16-6.95c-14.84,3.13-29.15,8.14-42.9,14.51-2.47,1.14-4.92,4.58-5.51,7.17s-.47,5.27.6,7.81c.97,2.31,2.63,4.54,4.91,5.74,3,1.58,5.91,1.81,9.25,1.21,11.41-2.06,22.62-6.77,32.09-13.47,3.17-2.25,5.2-4.85,5.73-8.77.48-3.59-.49-7.56-3.3-10.08-4.92-4.42-10.78-6.28-17.33-6.46-4.26-.12-8.56.42-12.81.71-9.59.67-19.17,1.34-28.76,2l3.19,23.57c8.47-3.57,16.95-7.13,25.42-10.7,2.89-1.21,5.62-2.58,7.17-5.51,1.28-2.42,1.79-4.92,1.42-7.65-.74-5.5-5.82-10.87-11.79-10.4-12.15.95-24.3,1.9-36.45,2.85-3.22.25-6.14,1.17-8.49,3.51-2.08,2.08-3.65,5.5-3.51,8.49s1.16,6.32,3.51,8.49,5.29,3.67,8.49,3.51c4.37-.21,8.33-1.24,12.2-3.32s6.58-5.07,9.08-8.51c2.2-3.01,1.97-7.45.6-10.68-1.49-3.53-4.15-5.75-7.78-6.95-18.06-5.96-35.79,2.33-53.58,4.85l3.19-.43c-1.88.25-3.81.55-5.71.35l3.19.43c-.46-.08-.87-.18-1.31-.33l2.87,1.21c-.37-.17-.67-.33-1-.56l2.43,1.88c-.36-.29-.66-.6-.94-.96l1.88,2.43c-.26-.38-.46-.77-.64-1.19l1.21,2.87c-.2-.56-.34-1.12-.43-1.71l.43,3.19c-.1-.87-.09-1.71,0-2.58l-.43,3.19c.25-1.89.97-3.65,1.56-5.45.92-2.8,1.58-5.92,1.28-8.87-7.86,1.06-15.71,2.13-23.57,3.19,1.33,9.04,2.66,18.09,4,27.13.59,3.99,4.73,7.38,8.38,8.38,3.84,1.06,9.01.12,11.68-3.09,6.45-7.73,11.27-16.89,12.65-26.96.5-1.6.57-3.19.21-4.79-.07-1.6-.55-3.08-1.42-4.46-1.44-2.23-3.28-3.87-5.74-4.91s-5.28-1.42-7.81-.6c-2.81.91-5.89,2.72-7.17,5.51-4.96,10.78-9.12,21.92-12.06,33.42s-4.77,23.35-5.62,35.2l.43,3.19,1.21,2.87c1.32,2.26,3.36,3.91,5.74,4.91,2.04.86,4.02,1.11,6.22.82,2.37-.32,5.34-1.34,6.89-3.3,10.45-13.25,19.58-27.34,26.84-42.59,1.41-2.96,2.11-5.98,1.21-9.25-.77-2.78-2.92-5.8-5.51-7.17-5.58-2.95-13.24-1.6-16.42,4.31-8.12,15.1-15.25,30.71-21.55,46.65,7.71,2.13,15.43,4.25,23.14,6.38,3.67-10.37,6.88-20.9,9.64-31.55,1.51-5.82-1.44-11.83-6.95-14.16-2.38-1.01-5.28-1.42-7.81-.6-3.09,1-5.33,2.82-7.17,5.51-10.15,14.83-17.67,31.67-22.1,49.09-1.26,4.97.79,11.05,5.51,13.55,1.89,1,3.93,1.54,6.06,1.64,3.33.15,6.02-1.55,8.49-3.51,9.15-7.32,18.3-14.64,27.46-21.96-6.28-4.85-12.56-9.69-18.85-14.54-5.97,12.5-11.94,25-17.91,37.5-1.35,2.83-2.22,6.12-1.21,9.25.82,2.53,2.19,4.6,4.3,6.23,4.81,3.71,11.33,3.17,15.76-.94,11.89-11.02,23.78-22.05,35.67-33.07l-16.97-16.97c-8.23,8-16.47,16-24.7,23.99l16.97,16.97c13.25-14.01,26.5-28.03,39.75-42.04,3.81-4.03,7.63-8.07,11.44-12.1,2.15-2.28,3.51-5.32,3.51-8.49,0-2.94-1.31-6.46-3.51-8.49s-5.29-3.66-8.49-3.51l-3.19.43c-2.03.57-3.8,1.6-5.3,3.09-16.23,13.37-32.46,26.74-48.68,40.11,5.66,5.66,11.31,11.31,16.97,16.97,12.03-14.56,25.24-28.13,39.49-40.53,4.06-3.53,8.21-6.97,12.43-10.31l-16.97-16.97c-12.89,14.5-25.79,29-38.68,43.49,5.66,5.66,11.31,11.31,16.97,16.97,12.6-14.67,25.2-29.33,37.8-44,2.01-2.34,3.66-5.26,3.51-8.49-.12-2.71-.91-5.11-2.58-7.27-1.53-1.98-3.72-3.73-6.23-4.3l-3.19-.43c-2.17,0-4.18.55-6.06,1.64-17.22,7.56-33.99,16.11-50.23,25.6,5.47,5.47,10.95,10.95,16.42,16.42.8-1.16,1.63-2.3,2.49-3.41l-1.88,2.43c4.44-5.68,9.66-10.66,15.35-15.08l-2.43,1.88c5.11-3.94,10.55-7.41,16.18-10.56-4.85-6.28-9.69-12.56-14.54-18.85-11.83,12.7-23.19,25.82-34.06,39.35-1.3,1.62-2.52,3.25-3.09,5.3-.72,2.61-.44,5.35.6,7.81,1.91,4.52,6.1,7.14,10.97,7.38,17.39.84,33.37-6.88,50.29-9.25l-3.19.43c4.45-.59,8.93-.75,13.39-.16l-3.19-.43c1.09.16,2.16.35,3.23.58l-8.81-11.57c0,.27-.02.54-.06.81l.43-3.19c-.11.8-.31,1.54-.61,2.29l1.21-2.87c-.38.86-.85,1.64-1.4,2.41l1.88-2.43c-1.12,1.45-2.46,2.66-3.9,3.78l2.43-1.88c-5.55,4.2-11.8,7.68-17.88,11.05-6.38,3.54-12.91,6.79-19.57,9.76-2.46,1.1-4.93,4.61-5.51,7.17-.61,2.68-.47,5.27.6,7.81.97,2.31,2.63,4.54,4.91,5.74,2.67,1.41,6.31,2.39,9.25,1.21,17.2-6.89,34.74-12.9,52.55-17.98,5.06-1.44,10.15-2.81,15.25-4.11-3.08-7.31-6.16-14.62-9.25-21.93-19.8,10.15-39.98,19.56-60.48,28.21l2.87-1.21c-1.51.64-3.03,1.27-4.54,1.9-1.56.37-2.92,1.09-4.08,2.15-1.31.85-2.34,1.97-3.09,3.37-1.51,2.57-2.14,6.36-1.21,9.25,2.06,6.38,8.21,9.92,14.76,8.38s13.66-2.86,20.57-3.8l-3.19.43c3.55-.47,7.11-.86,10.68-1.15,3.15-.26,6.53-.79,9.68-.43l-3.19-.43c.69.11,1.34.27,1.99.53l-2.87-1.21c.29.14.55.28.81.47l-2.43-1.88c.24.19.42.37.6.62l-1.88-2.43c.11.15.19.32.25.5l-1.21-2.87.07.28-.43-3.19c.04.2.05.4.03.61l5.94-10.36c-2.89,1.52-5.84,2.93-8.85,4.21l2.87-1.21c-5.87,2.47-11.93,4.45-18.13,5.93s-10.33,8.74-8.38,14.76c.94,2.9,2.74,5.71,5.51,7.17,3.01,1.59,5.9,1.79,9.25,1.21,1.78-.31,3.56-.58,5.35-.83l-3.19.43c12.55-1.67,25.26-1.67,37.81,0l-3.19-.43c4.12.56,8.2,1.3,12.26,2.21v-23.14c-8.11,1.75-16.29,3.18-24.52,4.29l3.19-.43c-7.13.95-14.29,1.66-21.47,2.14l3.19,23.57c1.47-.22,2.95-.42,4.42-.62l-3.19.43c10.33-1.37,20.73-2.27,31.14-2.68l-3.19-23.57c-4.88,1.03-9.79,1.89-14.73,2.56l3.19-.43c-8.43,1.12-16.91,1.7-25.41,1.73l6.06,22.36c3.29-2.09,6.74-3.9,10.33-5.42l-2.87,1.21c2.66-1.11,5.38-2.05,8.15-2.83,5.77-1.62,9.38-7.31,8.6-13.17-.34-2.52-1.37-5.12-3.3-6.89-2.17-1.99-5.42-3.92-8.49-3.51-15.68,2.06-31.37,4.11-47.05,6.17,3.86,5.06,7.71,10.13,11.57,15.19.1-.28.2-.56.32-.83l-1.21,2.87c.43-.96.95-1.83,1.57-2.67l-1.88,2.43c.66-.82,1.37-1.54,2.19-2.2l-2.43,1.88.36-.27c2.16-1.62,3.83-3.18,4.91-5.74,1.01-2.38,1.42-5.28.6-7.81-.64-1.98-1.68-3.76-3.09-5.3-1.8-1.96-5.76-3.84-8.49-3.51-8.2,1-16.41,1.99-24.61,2.99l6.06,22.36c9.36-4.17,18.71-8.35,28.07-12.52,2.47-1.1,4.93-4.61,5.51-7.17.61-2.68.47-5.27-.6-7.81-.97-2.31-2.63-4.54-4.91-5.74-2.66-1.41-6.32-2.39-9.25-1.21-7.04,2.85-14.08,5.69-21.12,8.54-3.01,1.22-5.47,2.6-7.17,5.51-1.51,2.57-2.14,6.36-1.21,9.25,2.02,6.26,8.25,10.08,14.76,8.38,22.25-5.81,44.51-11.61,66.76-17.42,6.38-1.67,12.77-3.33,19.15-5,2.9-.76,5.67-2.95,7.17-5.51s2.14-6.36,1.21-9.25c-2.06-6.36-8.21-9.94-14.76-8.38-5.13,1.23-10.32,2.19-15.55,2.89l3.19-.43c-3.07.4-6.14.71-9.23.94l6.06,22.36c2.47-1.83,5.13-3.35,7.96-4.55l-2.87,1.21c3-1.23,6.1-2.09,9.31-2.57l-3.19.43c.32-.04.64-.09.96-.12-2.83-6.83-5.66-13.66-8.49-20.49-.81.77-1.65,1.49-2.52,2.18l2.43-1.88c-2.03,1.56-4.19,2.88-6.5,3.97-2.47,1.17-4.92,4.56-5.51,7.17s-.47,5.27.6,7.81c.97,2.31,2.63,4.54,4.91,5.74l2.87,1.21c2.13.57,4.25.57,6.38,0,13.28-1.95,26.41-4.81,39.29-8.56,2.93-.85,5.62-2.87,7.17-5.51s2.14-6.36,1.21-9.25-2.74-5.71-5.51-7.17l-2.87-1.21c-2.13-.57-4.25-.57-6.38,0-1.66.24-3.32.48-4.98.7l3.19-.43c-20.68,2.77-41.54,4.04-62.4,3.81,3.45,6.02,6.91,12.04,10.36,18.06.63-1.37,1.4-2.64,2.3-3.84l-1.88,2.43c1.42-1.82,3.09-3.38,4.91-4.8l-2.43,1.88c4.11-3.16,8.72-5.54,13.06-8.35,5.77-3.74,11.12-8.18,14.6-14.2,1.93-3.34,2.09-7.17.6-10.68-1.34-3.19-4.19-6.28-7.78-6.95-6.36-1.18-12.85-1.94-19.33-1.92s-12.97.78-19.32,1.99c-2.82.54-5.77,3.12-7.17,5.51-1.51,2.57-2.14,6.36-1.21,9.25s2.74,5.71,5.51,7.17c2.98,1.58,5.93,1.84,9.25,1.21,1.6-.3,3.2-.57,4.8-.79l-3.19.43c7.71-1.01,15.49-1,23.2.03l-3.19-.43c1.43.2,2.85.43,4.27.7l-7.17-17.63c-.47.81-.98,1.58-1.54,2.33l1.88-2.43c-1.51,1.94-3.3,3.6-5.23,5.11l2.43-1.88c-9.75,7.43-22.63,11.83-28.09,23.75-1.09,1.87-1.63,3.89-1.64,6.06,0,2.17.55,4.18,1.64,6.06,2.15,3.68,6.12,5.9,10.36,5.94,23.64.26,47.18-1.53,70.56-4.94l-6.38-23.14c-12.89,3.75-26.01,6.61-39.29,8.56l9.25,21.93c4.22-1.99,8.07-4.84,11.45-8.03s4.29-8.82,2.48-13.11c-.83-1.97-2-3.49-3.7-4.8-1.91-1.47-4.78-2.88-7.27-2.58-4.4.53-8.65,1.2-12.78,2.84s-7.96,3.42-11.5,6.04c-2.17,1.6-3.83,3.19-4.91,5.74-1.01,2.38-1.42,5.28-.6,7.81.64,1.98,1.68,3.76,3.09,5.3,1.89,2.06,5.67,3.72,8.49,3.51,9.4-.68,18.79-2.07,27.96-4.26l-6.38-23.14c-22.25,5.81-44.51,11.61-66.76,17.42-6.38,1.67-12.77,3.33-19.15,5l6.38,23.14c7.04-2.85,14.08-5.69,21.12-8.54l-9.25-21.93c-9.36,4.17-18.71,8.35-28.07,12.52l-2.43,1.88c-1.17,1.09-2,2.37-2.48,3.86-1.01,2.38-1.42,5.28-.6,7.81.64,1.98,1.68,3.76,3.09,5.3,1.8,1.96,5.76,3.84,8.49,3.51,8.2-1,16.41-1.99,24.61-2.99l-6.06-22.36c-2.87,2.15-4.73,3.87-6.85,6.77-1.4,1.92-2.29,4.14-3.1,6.36-1.29,3.52-.03,7.65,2.15,10.46s5.81,5.2,9.42,4.73c15.68-2.06,31.37-4.11,47.05-6.17l-3.19-23.57c-7.48,2.1-14.79,5.29-21.35,9.46-4.34,2.75-7.18,8.4-5.51,13.55s6.13,8.83,11.57,8.81c14.54-.06,29.11-1.71,43.33-4.72,2.72-.58,5.88-3.07,7.17-5.51s1.79-4.92,1.42-7.65c-.76-5.67-5.79-10.64-11.79-10.4-12.99.52-25.9,1.85-38.76,3.74-2.65.39-5.96,3.22-7.17,5.51-1.28,2.42-1.79,4.92-1.42,7.65.75,5.55,5.81,10.8,11.79,10.4,16.51-1.08,32.99-3.37,49.17-6.86l2.87-1.21c1.4-.75,2.52-1.78,3.37-3.09,1.56-2.02,2.69-4.64,2.58-7.27-.1-2.13-.64-4.17-1.64-6.06-1.31-2.47-4.44-4.9-7.17-5.51-10.1-2.27-20.49-3.6-30.83-3.86-10.38-.26-20.74.72-30.97,2.49l6.38,23.14c10.36-2.47,20.43-6.39,29.85-11.35,3.72-1.96,5.9-6.27,5.94-10.36.05-5.08-2.74-10-7.16-12.53-2.97-1.69-5.92-2.32-9.31-2.53-2.15-.13-4.37.15-6.51.31-2.29.16-4.58.36-6.86.6-10.11,1.04-20.16,2.65-30.06,4.97l6.38,23.14c18.05-7.51,35.9-15.48,53.46-24.09,4.83-2.37,9.64-4.78,14.43-7.23,2.48-1.27,4.9-4.47,5.51-7.17s.47-5.27-.6-7.81c-2.33-5.52-8.3-8.44-14.16-6.95-17.95,4.56-35.67,10.04-53.06,16.42-4.94,1.82-9.86,3.71-14.75,5.66,3.08,7.31,6.16,14.62,9.25,21.93,9.23-4.12,18.21-8.78,26.87-13.98,4.73-2.84,9.39-5.75,13.68-9.24,5.28-4.3,8.51-10.44,8.81-17.25.12-2.62-1.02-5.26-2.58-7.27s-3.73-3.75-6.23-4.3c-10.89-2.38-21.75-1.16-32.49,1.43-9.08,2.19-17.98,5.19-27.26,6.48l3.19-.43c-3.44.46-6.89.66-10.36.49,2.83,6.83,5.66,13.66,8.49,20.49,10.87-13.53,22.23-26.65,34.06-39.35,4.1-4.4,4.65-10.95.94-15.76s-10.21-6.04-15.48-3.09c-14.97,8.38-28.53,19.14-38.32,33.36l-1.21,2.87c-.5,1.6-.57,3.19-.21,4.79.34,2.52,1.37,5.12,3.3,6.89,3.94,3.62,9.8,4.65,14.54,1.88,16.23-9.49,33.01-18.04,50.23-25.6-4.85-6.28-9.69-12.56-14.54-18.85-12.6,14.67-25.2,29.33-37.8,44-2.1,2.45-3.51,5.17-3.51,8.49,0,2.94,1.31,6.46,3.51,8.49s5.29,3.66,8.49,3.51,6.37-1.14,8.49-3.51c12.89-14.5,25.79-29,38.68-43.49,2.12-2.39,3.51-5.22,3.51-8.49,0-2.94-1.31-6.46-3.51-8.49s-5.29-3.66-8.49-3.51l-3.19.43c-2.03.57-3.8,1.6-5.3,3.09-14.81,11.72-28.65,24.65-41.35,38.63-3.62,3.99-7.14,8.06-10.57,12.21-2.08,2.52-3.51,5.1-3.51,8.49,0,2.94,1.31,6.46,3.51,8.49s5.29,3.66,8.49,3.51l3.19-.43c2.03-.57,3.8-1.6,5.3-3.09,16.23-13.37,32.46-26.74,48.68-40.11-5.66-5.66-11.31-11.31-16.97-16.97-13.25,14.01-26.5,28.03-39.75,42.04-3.81,4.03-7.63,8.07-11.44,12.1-2.15,2.28-3.51,5.32-3.51,8.49,0,2.94,1.31,6.46,3.51,8.49,4.85,4.45,12.16,4.68,16.97,0,8.23-8,16.47-16,24.7-23.99,2.19-2.12,3.51-5.45,3.51-8.49s-1.31-6.46-3.51-8.49c-4.94-4.53-12.05-4.56-16.97,0-11.89,11.02-23.78,22.05-35.67,33.07,6.28,4.85,12.56,9.69,18.85,14.54,5.97-12.5,11.94-25,17.91-37.5,1.35-2.83,2.22-6.12,1.21-9.25-.82-2.53-2.19-4.6-4.3-6.23s-4.64-2.69-7.27-2.58l-3.19.43c-2.03.57-3.8,1.6-5.3,3.09-9.15,7.32-18.3,14.64-27.46,21.96l20.06,11.68c1.78-7.02,4.08-13.89,6.88-20.57l-1.21,2.87c3.8-9,8.49-17.59,14.01-25.65l-21.93-9.25c-2.76,10.65-5.98,21.17-9.64,31.55-.99,2.81-.26,6.74,1.21,9.25s4.31,4.86,7.17,5.51c3.07.7,6.52.55,9.25-1.21l2.43-1.88c1.49-1.5,2.52-3.26,3.09-5.3,1.2-3.03,2.43-6.04,3.69-9.05l-1.21,2.87c5.01-11.83,10.56-23.43,16.65-34.74-6.91-4.04-13.82-8.08-20.72-12.11-6.43,13.5-14.27,26.28-23.38,38.14l1.88-2.43c-.52.68-1.05,1.36-1.58,2.03,6.83,2.83,13.66,5.66,20.49,8.49.27-3.83.67-7.65,1.18-11.46l-.43,3.19c2.16-15.76,6.37-31.18,12.54-45.83l-1.21,2.87c.75-1.77,1.53-3.52,2.33-5.27l-21.93-9.25c-.51,3.74-1.51,7.38-2.96,10.87l1.21-2.87c-1.43,3.33-3.23,6.45-5.42,9.33l1.88-2.43c-.39.5-.78.98-1.18,1.47,6.69,1.77,13.37,3.53,20.06,5.3-1.33-9.04-2.66-18.09-4-27.13-.39-2.65-3.22-5.96-5.51-7.17-2.42-1.28-4.92-1.79-7.65-1.42-2.52.34-5.12,1.37-6.89,3.3-2.03,2.21-3.83,5.37-3.51,8.49.09.84.07,1.65-.04,2.49l.43-3.19c-.44,2.61-1.64,4.98-2.19,7.55-.79,3.68-.99,7.43.03,11.1,1.22,4.39,4.19,8.49,8.32,10.54,3.87,1.92,7.87,2.27,12.08,1.75,6.11-.75,12.04-1.96,18.01-3.41,5.03-1.22,10.06-2.47,15.19-3.19l-3.19.43c4-.53,8.02-.71,12.04-.21l-3.19-.43c2.09.29,4.14.75,6.15,1.42l-7.17-17.63-.25.35,1.88-2.43c-.8,1.02-1.7,1.91-2.72,2.71l2.43-1.88c-.93.68-1.91,1.24-2.96,1.71l2.87-1.21c-1.2.49-2.42.83-3.7,1.02l3.19-.43c-.43.05-.85.08-1.28.1v24c12.15-.95,24.3-1.9,36.45-2.85l-3.19-23.57c-8.47,3.57-16.95,7.13-25.42,10.7-2.89,1.21-5.62,2.58-7.17,5.51-1.28,2.42-1.79,4.92-1.42,7.65.74,5.54,5.81,10.82,11.79,10.4,7.72-.54,15.45-1.08,23.17-1.61,3.82-.27,7.63-.53,11.45-.8,3.16-.22,6.33-.51,9.49-.1l-3.19-.43c1.23.19,2.42.49,3.57.97l-2.87-1.21c.75.34,1.43.75,2.09,1.24l-2.43-1.88c.22.17.43.35.63.54l2.43-18.85c-4.29,3.04-8.87,5.59-13.7,7.66l2.87-1.21c-5,2.1-10.19,3.64-15.52,4.6l9.25,21.93c1.92-.89,3.85-1.75,5.8-2.57l-2.87,1.21c11.04-4.66,22.51-8.25,34.24-10.72l-9.25-21.93c-6.55,4.33-13.48,8.04-20.71,11.09l2.87-1.21c-3.78,1.58-7.62,2.98-11.53,4.19,3.08,7.31,6.16,14.62,9.25,21.93,16.87-12.8,34.9-24.02,53.84-33.49-4.85-6.28-9.69-12.56-14.54-18.85-13.81,13.15-26.09,27.92-36.71,43.74-2.35,3.5-2.06,8.59,0,12.11s6.27,6.33,10.36,5.94c13.83-1.31,27.26-5.62,38.77-13.54,3.19-2.2,5.21-4.88,5.73-8.77.48-3.59-.49-7.56-3.3-10.08-5.23-4.69-11.1-8.52-17.4-11.6s-13.02-5.69-19.56-8.45l2.87,1.21c-7.07-2.99-14.1-6.23-20.24-10.9l2.43,1.88c-3.13-2.42-5.92-5.19-8.35-8.32l1.88,2.43c-5.11-6.7-8.8-14.5-12.08-22.22l1.21,2.87c-4.36-10.4-7.6-21.23-9.66-32.31-.74-4.01-4.61-7.34-8.38-8.38-4.16-1.15-8.61.08-11.68,3.09-2.07,2.02-4.14,4.05-6.21,6.07l20.06,11.68c.46-1.81,1.05-3.57,1.77-5.29l-1.21,2.87c1.25-2.91,2.84-5.62,4.75-8.15l-1.88,2.43c2.02-2.62,4.35-4.95,6.96-6.98l-2.43,1.88c1.37-1.04,2.8-1.98,4.3-2.83-5.88-4.52-11.75-9.03-17.63-13.55-1.87,4.75-3.79,9.47-5.77,14.17l1.21-2.87c-4.82,11.41-9.98,22.67-15.46,33.78-2.18,4.42-2.17,9.31.94,13.33,2.93,3.79,7.92,5.57,12.61,4.3,8.03-2.17,14.78-7.13,20.73-12.79,4.75-4.52,9.05-9.52,14.23-13.57l-2.43,1.88c2.25-1.73,4.64-3.23,7.25-4.36l-2.87,1.21c1.21-.5,2.44-.91,3.71-1.23l-14.76-14.76c-7.06,17.15-14.13,34.3-21.19,51.44l-.43,3.19c-.06,1.65.28,3.19,1.03,4.62.97,2.3,2.63,4.54,4.91,5.74,4.35,2.3,9.09,2.92,13.88,1.59,2.97-.82,5.77-2.33,8.33-4.02,4.32-2.84,8.63-5.69,12.94-8.54,8.71-5.74,17.41-11.49,26.12-17.23-4.85-6.28-9.69-12.56-14.54-18.85-9.31,11.82-19.43,22.99-30.29,33.41,6.28,4.85,12.56,9.69,18.85,14.54,7.87-14.41,15.73-28.81,23.6-43.22,1.52-2.78,2.06-6.15,1.21-9.25-.77-2.78-2.92-5.8-5.51-7.17-2.78-1.47-6.16-2.21-9.25-1.21s-5.29,2.84-7.17,5.51c-11.5,16.38-23.01,32.77-34.51,49.15-3.14,4.47-6.13,9.09-9.46,13.41l1.88-2.43c-.8,1-1.65,1.92-2.66,2.71l2.43-1.88c-.44.31-.88.58-1.37.82l2.87-1.21c-.49.2-.96.34-1.48.43l3.19-.43c-.41.04-.78.04-1.19,0,3.86,5.06,7.71,10.13,11.57,15.19,3.29-15.62,8.09-30.9,14.29-45.62l-1.21,2.87c2.85-6.71,5.98-13.29,9.39-19.73-6.91-4.04-13.82-8.08-20.72-12.11-7.38,17.28-15.46,34.25-24.25,50.86-2.5,4.73-5.07,9.43-7.68,14.11-2.94,5.25-1.65,11.81,3.09,15.48,2.02,1.56,4.64,2.69,7.27,2.58,2.95-.13,6.58-1.07,8.49-3.51,14.04-17.99,28.07-35.99,42.11-53.98,3.94-5.06,7.89-10.11,11.83-15.17,1.17-1.09,2-2.37,2.48-3.86.75-1.43,1.1-2.97,1.03-4.62,0-2.94-1.31-6.46-3.51-8.49-4.79-4.39-12.23-4.75-16.97,0-16.66,16.7-32.52,34.19-47.48,52.43-4.27,5.21-8.47,10.48-12.6,15.81,6.28,4.85,12.56,9.69,18.85,14.54,4.3-9.76,8.6-19.51,12.91-29.27,4.57-10.37,9.34-20.69,13.64-31.18,2.47-6.02,4.05-12.12,4.47-18.65l-.43-3.19-1.21-2.87c-1.32-2.26-3.36-3.91-5.74-4.91-4.62-1.95-9.4-.76-13.11,2.48-19.2,16.79-34.83,37.22-49.49,57.96-4.07,5.76-8.06,11.56-12.06,17.37l21.93,9.25c8.55-24.04,17.1-48.08,25.65-72.12,2.41-6.77,4.81-13.53,7.22-20.3l.43-3.19c.06-1.65-.28-3.19-1.03-4.62-.97-2.31-2.63-4.54-4.91-5.74-4.8-2.54-10.57-1.94-14.54,1.88-14.52,13.93-25.7,31.02-35.7,48.37-2.72,4.72-5.37,9.48-8.01,14.24,7.45,2.02,14.91,4.04,22.36,6.06,2.02-18.11,4.05-36.22,6.07-54.33.41-3.68-2.49-8.9-5.94-10.36-2.65-1.12-4.67-2-7.6-1.99-2.75,0-5.14.79-7.59,1.97-2.28,1.1-4.37,2.81-6.04,4.72-2.81,3.21-5.31,6.75-7.94,10.11-5.4,6.92-10.8,13.83-16.2,20.75,6.83,2.83,13.66,5.66,20.49,8.49-.32-7.66.03-15.33,1.03-22.93l-.43,3.19c.52-3.8,1.19-7.57,2.03-11.31.7-3.13.44-6.43-1.21-9.25-1.46-2.49-4.31-4.86-7.17-5.51-3.07-.7-6.52-.55-9.25,1.21-2.57,1.66-4.79,4.11-5.51,7.17-2.88,12.26-4.16,25.01-3.48,37.6.28,5.1,3.51,10.36,8.81,11.57,2.11.48,4.27.48,6.38,0,2.55-.58,6.09-3.05,7.17-5.51,1.6-3.64,3.21-7.29,4.81-10.93-7.45-2.02-14.91-4.04-22.36-6.06-1.57,15.2-3.14,30.39-4.71,45.59l.43,3.19c.37,1.56,1.09,2.92,2.15,4.08,1.53,1.98,3.72,3.73,6.23,4.3,2.11.48,4.27.48,6.38,0,2.58-.59,6.05-3.05,7.17-5.51,3.07-6.77,6.15-13.53,9.22-20.3-7.45-2.02-14.91-4.04-22.36-6.06-.62,6.22-1.35,12.43-2.18,18.62l.43-3.19c-2.61,19.31-6.22,38.48-10.84,57.41,7.71,2.13,15.43,4.25,23.14,6.38.58-2.81,1.42-5.54,2.53-8.19l-1.21,2.87c1.45-3.37,3.28-6.53,5.5-9.46l-1.88,2.43c.39-.5.79-1,1.2-1.49-6.83-2.83-13.66-5.66-20.49-8.49,1.21,11.93,1.01,23.96-.57,35.85l.43-3.19c-1.11,8.16-2.87,16.2-5.26,24.08,7.86,1.06,15.71,2.13,23.57,3.19.11-1.41.26-2.81.45-4.2l-.43,3.19c.79-5.77,2.22-11.42,4.25-16.87-7.86-1.06-15.71-2.13-23.57-3.19-1.07,14.7-1.42,29.44-1.05,44.17.2,8.01,7.49,13.37,15.19,11.57,10.09-2.35,20.03-5.34,29.75-8.93,2.86-1.06,5.68-2.69,7.17-5.51,1.28-2.42,1.79-4.92,1.42-7.65-.77-5.72-5.78-10.57-11.79-10.4-7.57.21-15.23,1.54-22.31,4.28-2.52.98-4.54,2.11-6.23,4.3-1.56,2.02-2.69,4.64-2.58,7.27.23,5.14,3.54,10.35,8.81,11.57,23.55,5.46,48.05,7.08,72.07,4.28,3.14-.37,6.23-1.05,8.49-3.51,1.82-1.98,2.94-4.21,3.3-6.89.77-5.69-2.76-11.76-8.6-13.17-13.25-3.2-27.05-4.66-40.67-4.07-3.16.14-6.22,1.24-8.49,3.51-2.08,2.08-3.65,5.5-3.51,8.49s1.16,6.32,3.51,8.49,5.16,3.22,8.49,3.51c20.12,1.8,40.35,2.29,60.53,1.42,5.79-.25,11.58-.61,17.36-1.08,3.08-.25,6.3-1.13,8.49-3.51,1.82-1.98,2.94-4.21,3.3-6.89s.02-5.42-1.42-7.65c-1.58-2.45-4.16-5.04-7.17-5.51-12.77-2-25.55-2.58-38.4-.99-3.15.39-6.21,1.04-8.49,3.51-1.82,1.98-2.94,4.21-3.3,6.89-.76,5.64,2.75,11.83,8.6,13.17,19.06,4.35,39,4.11,57.9-.95,5.78-1.55,9.38-7.36,8.6-13.17-.34-2.52-1.37-5.12-3.3-6.89l-2.43-1.88c-1.87-1.09-3.89-1.63-6.06-1.64-11.86-1.4-23.82-1.47-35.7-.23-3.27.34-6.08,1.11-8.49,3.51-2.08,2.08-3.65,5.5-3.51,8.49.3,6.76,5.27,11.68,12,12,20.07.97,40.2.53,60.21-1.3l-3.19-23.57c-6.74,1.08-13.48,2.16-20.22,3.23l-2.87,1.21c-1.4.75-2.52,1.78-3.37,3.09-1.56,2.02-2.69,4.64-2.58,7.27.23,5.2,3.54,10.27,8.81,11.57,17.23,4.27,35.73,3.83,52.63-1.7,4.86-1.59,9.05-6.17,8.81-11.57-.1-2.13-.64-4.17-1.64-6.06-1.54-2.92-4.29-4.33-7.17-5.51-15.18-6.25-32.25-5.49-48.3-4.49l3.19,23.57c12.25-3.61,24.41-7.55,36.45-11.81,2.53-.89,4.57-2.15,6.23-4.3,1.56-2.02,2.69-4.64,2.58-7.27-.1-2.13-.64-4.17-1.64-6.06-1.22-2.3-4.51-5.11-7.17-5.51-4.16-.63-8.26-1.59-12.16-3.19l2.87,1.21c-2.19-.93-4.27-2.06-6.18-3.49l2.43,1.88c-1.43-1.11-2.71-2.35-3.82-3.78l1.88,2.43c-.89-1.2-1.62-2.46-2.21-3.83l1.21,2.87c-.62-1.54-1.04-3.11-1.29-4.75l.43,3.19c-.44-3.34-.19-6.68.25-10l-.43,3.19c1-7.23,2.9-14.58,2.15-21.91,0-2.17-.55-4.18-1.64-6.06-1.07-1.8-2.5-3.24-4.31-4.31-3.42-2-8.74-2.45-12.11,0-5.2,3.78-10.39,7.56-15.59,11.34,5.47,5.47,10.95,10.95,16.42,16.42,6.09-10.52,12.53-20.84,19.32-30.92,1.6-2.38,2.09-6.54,1.21-9.25-.82-2.53-2.19-4.6-4.3-6.23-4.62-3.57-11.58-3.39-15.76.94-4.67,4.84-9.69,9.33-15.01,13.44l2.43-1.88c-3.2,2.46-6.5,4.77-9.9,6.95,5.88,4.52,11.75,9.03,17.63,13.55,6.07-20.19,12.13-40.37,18.2-60.56,1.67-5.54,3.6-10.98,4.18-16.77.38-3.74-.53-7.79-2.41-11.04-2.25-3.92-6.43-6.8-11.07-6.64-1.94.06-4.13.35-6.02.95-5.84,1.84-10.58,5.58-14.95,9.75-3.62,3.45-7.17,6.98-10.66,10.56-7.86,8.06-15.39,16.43-22.61,25.07,6.28,4.85,12.56,9.69,18.85,14.54,8.39-16.04,17.84-31.53,28.3-46.31,2.95-4.16,5.96-8.29,9.07-12.32l-1.88,2.43c1.54-1.97,3.16-3.87,5.13-5.42l-2.43,1.88c.92-.69,1.87-1.27,2.92-1.74l-2.87,1.21c.67-.27,1.34-.48,2.04-.63-4.92-4.92-9.84-9.84-14.76-14.76-1.77,9.66-4.58,19.09-8.37,28.16l1.21-2.87c-2.44,5.77-5.25,11.36-8.45,16.75l21.93,9.25c7-21.57,13.99-43.14,20.99-64.71,2.83-8.73-6.24-17.24-14.76-14.76-28.66,8.32-55.49,21.89-84.21,30.04-8.06,2.29-16.24,4.11-24.54,5.24l3.19-.43c-7.06.93-14.46,1.71-21.56.85l3.19.43c-2.2-.3-4.33-.81-6.4-1.64l2.87,1.21c-2.02-.86-3.86-1.99-5.61-3.32l2.43,1.88c-2.68-2.11-4.99-4.61-7.09-7.3l1.88,2.43c-3.06-3.99-5.54-8.36-7.5-12.98l1.21,2.87c-2.7-6.5-4.36-13.34-5.33-20.3l.43,3.19c-1.11-8.27-1.26-16.63-.86-24.96.3-6.28-5.73-12.28-12-12-3.1.14-6.32,1.16-8.49,3.51l-1.88,2.43c-1.09,1.87-1.63,3.89-1.64,6.06-.93,7.12-.45,14.09.67,21.16l1.21,2.87,1.88,2.43c1.88,1.88,4.29,2.95,6.89,3.3,2.2.29,4.18.04,6.22-.82,2.21-.93,4.69-2.65,5.74-4.91,2.57-5.53,5.74-10.74,9.46-15.57l-1.88,2.43c.21-.27.42-.53.63-.8-6.83-2.83-13.66-5.66-20.49-8.49.18,4.21.36,8.42.54,12.63.26,6,4.37,10.98,10.4,11.79,2.56.34,5.42.02,7.65-1.42,2.44-1.57,5.08-4.16,5.51-7.17.23-1.61.66-3.15,1.27-4.66l-1.21,2.87c.65-1.49,1.46-2.88,2.44-4.18l-1.88,2.43c.92-1.16,1.94-2.2,3.09-3.13l-2.43,1.88.35-.27-18.06-10.36c.52,7.38,1.05,14.76,1.57,22.13.19,2.73.88,5.08,2.58,7.27,1.53,1.98,3.72,3.73,6.23,4.3,2.11.48,4.27.48,6.38,0,2.62-.6,6-3.04,7.17-5.51,4.24-8.92,8.55-17.89,14.58-25.77l-1.88,2.43c1.58-2.04,3.27-3.99,5.08-5.83l-20.06-11.68c-2.07,13.36-5.63,26.46-10.62,39.03l-.43,3.19c-.06,1.65.28,3.19,1.03,4.62.97,2.31,2.63,4.54,4.91,5.74,4.62,2.44,10.8,2.11,14.54-1.88,6.69-7.13,13.39-14.27,20.08-21.4-6.83-2.83-13.66-5.66-20.49-8.49-.62,8.2-1.25,16.41-1.87,24.61-.21,2.8,1.47,6.6,3.51,8.49s4.21,2.94,6.89,3.3c5.75.77,11.69-2.77,13.17-8.6,2.03-7.97,4.11-15.96,7.27-23.58l-1.21,2.87c2.13-5.05,4.75-9.87,8.11-14.22l-1.88,2.43c.29-.37.59-.74.89-1.1-6.83-2.83-13.66-5.66-20.49-8.49-1.31,15.34-2.62,30.67-3.93,46.01l.43,3.19c.37,1.56,1.09,2.92,2.15,4.08,1.53,1.98,3.72,3.73,6.23,4.3,5.3,1.21,10.65-.83,13.55-5.51,4.09-6.6,8.5-12.98,13.23-19.13l-1.88,2.43c4.75-6.14,9.79-12.04,15.14-17.67l-20.06-11.68c-2,9.88-4.01,19.75-6.01,29.63-.62,3.04-.54,6.53,1.21,9.25,1.44,2.23,3.28,3.87,5.74,4.91s5.28,1.42,7.81.6l2.87-1.21c1.8-1.07,3.24-2.5,4.31-4.31,8.9-12.12,17.81-24.24,26.71-36.36l-21.93-9.25c-4.72,12.28-9.44,24.56-14.16,36.84-1.01,2.63-.28,6.93,1.21,9.25s3.28,3.87,5.74,4.91,5.28,1.42,7.81.6l2.87-1.21c1.8-1.07,3.24-2.5,4.31-4.31,8.93-12.31,17.86-24.61,26.8-36.92-6.91-4.04-13.82-8.08-20.72-12.11-10.55,14.72-20.87,29.78-26.09,47.34-1.21,4.08.11,8.7,3.09,11.68s7.47,4.1,11.68,3.09c17.89-4.31,34.74-14.26,47.2-27.81,3.8-4.13,7.27-8.63,10.33-13.34,1.45-2.23,1.77-5.1,1.42-7.65s-1.37-5.12-3.3-6.89c-1.53-1.41-3.32-2.45-5.3-3.09-2.69-.87-6.88-.4-9.25,1.21-8.07,5.5-16.09,11.09-23.59,17.34s-14.07,13.32-19.5,21.4l-1.21,2.87c-.5,1.6-.57,3.19-.21,4.79.34,2.52,1.37,5.12,3.3,6.89,3.91,3.59,9.84,4.7,14.54,1.88,17.91-10.75,35.83-21.5,53.74-32.25-4.85-6.28-9.69-12.56-14.54-18.85-7.32,8.12-14.63,16.26-21.9,24.43-3.46,3.88-7.1,7.67-10.35,11.74-2.69,3.37-4.59,6.2-6.18,10.19-.39.98-.67,1.93-.85,2.97-.61,3.53-.48,5.46.05,9.04s3.86,6.47,6.95,7.78c3.44,1.45,7.41,1.4,10.68-.6,17.05-10.46,33.08-22.76,47.57-36.53,3.95-3.75,7.77-7.62,11.49-11.6-5.66-5.66-11.31-11.31-16.97-16.97-14.9,16.25-29.98,32.81-41.15,51.93-3.46,5.93-6.34,12.08-9,18.41l-.43,3.19c-.06,1.65.28,3.19,1.03,4.62.97,2.31,2.63,4.54,4.91,5.74,4.67,2.47,10.74,2.07,14.54-1.88,17.41-18.08,34.82-36.16,52.23-54.25,4.97-5.17,9.95-10.33,14.92-15.5-6.28-4.85-12.56-9.69-18.85-14.54-10.89,20.53-21.78,41.06-32.66,61.58-2.82,5.32-1.74,11.75,3.09,15.48,2.02,1.56,4.64,2.69,7.27,2.58,2.97-.13,6.55-1.08,8.49-3.51,12.89-16.18,25.78-32.35,38.67-48.53l-20.06-11.68c-5.63,16.78-11.26,33.55-16.88,50.33-.92,2.74-.35,6.83,1.21,9.25,1.44,2.23,3.28,3.87,5.74,4.91,5.51,2.32,11.86.24,14.99-4.91,10.25-16.87,18.51-34.99,24.73-53.72l.43-3.19c.06-1.65-.28-3.19-1.03-4.62-.97-2.31-2.63-4.54-4.91-5.74-1.89-1-3.93-1.54-6.06-1.64-2.63-.12-6.81,1.35-8.49,3.51-11.68,15.05-24.57,29.14-38.53,42.1l11.68-3.09c-.18-.04-.36-.1-.53-.17l2.87,1.21c-.24-.12-.44-.24-.65-.4l2.43,1.88c-.13-.11-.24-.22-.35-.35l1.88,2.43c-.21-.28-.37-.56-.52-.87l1.21,2.87c-.33-.82-.48-1.68-.6-2.55l.43,3.19c-.33-2.52-.37-5.18-1.2-7.6-1.44-4.19-3.99-8.06-8.1-10.06-4.88-2.37-10.14-2.57-15.14-.46-4.21,1.78-7.14,4.79-9.75,8.47-3.31,4.68-5.55,10.29-7.72,15.55-1.96,4.74-3.53,9.65-4.68,14.64-1.49,6.44-2.38,13.07-2.71,19.66-.1,1.96.66,4.38,1.64,6.06,1.32,2.26,3.36,3.91,5.74,4.91,2.04.86,4.02,1.11,6.22.82,2.37-.32,5.34-1.34,6.89-3.3,12.43-15.74,24.12-32.03,34.8-49.01,2.94-4.66,5.8-9.37,8.59-14.13l-21.93-9.25c-4.3,19.05-8.53,38.28-9.49,57.84-.26,5.34-.24,10.68.1,16.01.38,6,4.28,10.96,10.4,11.79,5.94.8,11.42-2.83,13.17-8.6,3.29-10.87,7.14-21.56,11.56-32.03l-1.21,2.87c6.64-15.69,14.52-30.84,23.57-45.28-7.45-2.02-14.91-4.04-22.36-6.06,1.63,12.35.62,24.79-1.02,37.08l.43-3.19c-2.68,19.77-7.04,39.71-5.33,59.76.23,2.73.87,5.06,2.58,7.27,1.53,1.98,3.72,3.73,6.23,4.3,2.11.48,4.27.48,6.38,0,2.61-.59,6.01-3.04,7.17-5.51,10.31-21.92,18.68-44.74,24.61-68.23,1.62-6.41,3.06-12.86,4.32-19.35.6-3.06.56-6.51-1.21-9.25-1.44-2.23-3.28-3.87-5.74-4.91-5.39-2.27-12.02-.32-14.99,4.91-12.95,22.85-25.89,45.7-38.84,68.55-3.63,6.41-7.26,12.82-10.9,19.23-1.55,2.73-2.05,6.2-1.21,9.25.77,2.78,2.92,5.8,5.51,7.17,2.78,1.47,6.16,2.21,9.25,1.21l2.87-1.21c1.8-1.07,3.24-2.5,4.31-4.31,13.23-17.34,25.31-35.53,36.14-54.46,3.09-5.4,6.07-10.85,8.95-16.36,2.4-4.58,2.14-10.85-1.88-14.54-1.53-1.41-3.32-2.45-5.3-3.09-2.7-.87-6.87-.4-9.25,1.21-11.72,7.95-22.34,17.39-31.87,27.85s-18.22,21.95-26.46,33.55c-4.34,6.12-8.57,12.31-12.79,18.51-1.68,2.47-1.98,6.45-1.21,9.25s2.92,5.8,5.51,7.17c2.78,1.47,6.16,2.21,9.25,1.21s5.28-2.84,7.17-5.51c14.17-20.03,28.35-40.06,42.52-60.09,4.03-5.7,8.07-11.4,12.1-17.1l1.21-2.87c.5-1.6.57-3.19.21-4.79-.34-2.52-1.37-5.12-3.3-6.89-1.53-1.41-3.32-2.45-5.3-3.09-2.62-.85-6.95-.44-9.25,1.21-23.97,17.22-45.19,37.69-64.86,59.63-5.43,6.05-10.74,12.2-15.99,18.41-2,2.37-3.66,5.24-3.51,8.49.12,2.71.91,5.11,2.58,7.27,3.65,4.72,10.22,6.07,15.48,3.09,15.14-8.58,29.83-17.95,43.98-28.08,14.91-10.67,29.3-22.11,42.99-34.29,7.35-6.54,14.5-13.3,21.44-20.26,4.24-4.25,4.56-11.07.94-15.76s-10.34-6.24-15.48-3.09c-14.41,8.82-28.04,19.05-40.6,30.35-12.61,11.35-23.91,23.93-34.24,37.37-5.54,7.2-10.69,14.69-15.44,22.44-2.23,3.63-2.13,8.47,0,12.11,1.07,1.8,2.5,3.24,4.31,4.31,1.87,1.09,3.89,1.63,6.06,1.64,8.06,1.02,15.94-1.6,23.22-4.75,5.91-2.56,11.54-5.78,17.15-8.92,11.41-6.41,22.54-13.3,33.36-20.65,6.14-4.17,12.18-8.49,18.12-12.96,2.6-1.95,4.62-3.91,5.51-7.17.79-2.87.43-6.7-1.21-9.25s-4.11-4.82-7.17-5.51-6.6-.61-9.25,1.21c-13.75,9.43-27.45,18.93-40.66,29.11s-27.11,21.74-39.16,34.29c-7.07,7.36-13.58,15.19-19.68,23.36-1.67,2.24-2.04,6.67-1.21,9.25s2.19,4.6,4.3,6.23,4.64,2.69,7.27,2.58l3.19-.43c2.03-.57,3.8-1.6,5.3-3.09,21.29-16.45,41.9-33.78,61.74-51.95,5.56-5.09,11.05-10.24,16.49-15.46,4.32-4.15,4.49-11.15.94-15.76s-10.51-6.48-15.48-3.09c-29.54,20.15-58.04,41.88-85.31,65.02-7.43,6.31-14.77,12.73-22.02,19.26-1.42,1.28-2.58,3.47-3.09,5.3-.72,2.61-.44,5.35.6,7.81.83,1.97,2,3.49,3.7,4.8,1.98,1.53,4.69,2.76,7.27,2.58,5.06-.37,10.02-1.3,14.77-3.1s9.32-3.96,13.77-6.36c8-4.31,15.91-8.79,23.86-13.19,16.2-8.97,32.4-17.94,48.61-26.91,9.26-5.13,18.52-10.25,27.78-15.38l-12.11-20.72c-15.26,11.69-30.54,23.38-45.39,35.6s-27.92,23.78-40.8,36.84c-7.26,7.36-14.23,15.02-20.81,23-1.99,2.41-3.66,5.2-3.51,8.49.12,2.71.91,5.11,2.58,7.27,3.7,4.79,10.16,5.97,15.48,3.09,26.31-14.23,51.71-30.14,75.97-47.64,7.54-5.44,14.95-11.04,22.29-16.74,2.16-1.68,3.63-5.86,3.51-8.49s-.91-5.11-2.58-7.27c-3.69-4.77-10.17-5.99-15.48-3.09-21.49,11.76-42.98,23.52-64.47,35.28-6.12,3.35-12.23,6.69-18.35,10.04-5.51,3.02-7.75,11.08-4.31,16.42,1.65,2.56,4.11,4.82,7.17,5.51l3.19.43c2.17,0,4.18-.55,6.06-1.64,10.74-4.96,21.48-9.91,32.37-14.51l-2.87,1.21c19.28-8.12,39.12-15.13,59.76-18.82l-13.55-5.51c.15.23.28.47.39.72l-1.21-2.87c.14.38.24.71.31,1.11l-.43-3.19c.04.39.04.75.01,1.14l.43-3.19c-.09.67-.27,1.29-.52,1.92l1.21-2.87c-.43.94-.96,1.78-1.58,2.6l1.88-2.43c-1.72,2.15-3.88,3.87-5.95,5.68-2.33,2.04-4.67,4.09-7,6.13-4.67,4.09-9.34,8.18-14.01,12.27-9.34,8.18-18.68,16.36-28.02,24.54-5.24,4.59-10.47,9.17-15.71,13.76-2.13,1.86-3.64,5.69-3.51,8.49s.91,5.11,2.58,7.27c3.78,4.89,10.07,5.82,15.48,3.09,15.99-8.07,30.65-19.24,42.72-32.47,4.06-4.45,4.68-10.91.94-15.76-1.53-1.98-3.72-3.73-6.23-4.3l-3.19-.43c-2.17,0-4.18.55-6.06,1.64-3.2,1.44-6.4,2.86-9.62,4.23l2.87-1.21c-8.83,3.72-17.91,6.98-27.43,8.33l3.19-.43c-3.09.41-6.2.62-9.32.58,2.83,6.83,5.66,13.66,8.49,20.49,3.48-3.49,7.17-6.75,11.06-9.76l-2.43,1.88c7.94-6.1,16.63-11.15,25.85-15.04l-2.87,1.21c9.24-3.86,18.92-6.53,28.84-7.91l-3.19.43c2.91-.39,6.08-1.01,9.01-.63l-3.19-.43c.48.09.92.21,1.37.39l-2.87-1.21c.21.09.4.2.59.33l-2.43-1.88c.28.22.49.43.71.71l-1.88-2.43.18.3-1.21-2.87c.13.26.22.53.27.82l-.43-3.19c.04.28.05.56.02.84l.43-3.19c-.08.45-.19.83-.35,1.26l1.21-2.87c-.34.72-.76,1.36-1.23,1.99l1.88-2.43c-3.17,3.93-6.64,7.67-10.01,11.44s-6.83,7.57-10.36,11.25c-7.03,7.34-14.43,14.33-22.47,20.56l2.43-1.88c-1.34,1.03-2.7,2.05-4.07,3.04,5.88,4.52,11.75,9.03,17.63,13.55.3-.73.6-1.46.9-2.19l-1.21,2.87c5.25-12.38,12.07-24.04,20.27-34.71l-1.88,2.43c3.05-3.94,6.27-7.74,9.67-11.38s6.85-7.27,10.7-10.33l-2.43,1.88c.88-.66,1.77-1.22,2.78-1.65l-2.87,1.21c.42-.15.81-.27,1.25-.36l-3.19.43c.43-.06.8-.07,1.23-.04l-3.19-.43c.43.07.78.17,1.18.35l-2.87-1.21c.24.12.47.27.69.44l-2.43-1.88c.19.15.37.33.52.52l-1.88-2.43c.23.3.4.59.58.93l-1.21-2.87c.25.6.4,1.2.5,1.84l-.43-3.19c.24,2.17-.11,4.38-.39,6.53l.43-3.19c-1.17,8.62-3.48,17.03-6.86,25.04l1.21-2.87c-3.23,7.55-7.36,14.67-12.36,21.19l1.88-2.43-.3.38c6.83,2.83,13.66,5.66,20.49,8.49.33-9.23,1.11-18.43,2.33-27.58l-.43,3.19c3.02-22.36,8.67-44.31,16.85-65.33-7.86-1.06-15.71-2.13-23.57-3.19-.04,8.53-.63,17.05-1.76,25.51l.43-3.19c-2.37,17.44-7.01,34.52-13.82,50.74l1.21-2.87c-.81,1.92-1.66,3.84-2.53,5.73h20.72c-.89-1.22-1.63-2.51-2.24-3.9l1.21,2.87c-.94-2.25-1.5-4.59-1.85-7l.43,3.19c-.81-6.13-.46-12.43-.16-18.58.34-6.78.96-13.54,1.85-20.27l-.43,3.19c.98-7.27,2.27-14.5,3.89-21.66-7.86-1.06-15.71-2.13-23.57-3.19,1.02,9,1.19,18.07.49,27.1h24c-1.76-15.52-3.45-31.26-1.38-46.84l-.43,3.19c.88-6.33,2.4-12.55,4.76-18.5h-23.14c1.88,5.86,3.22,11.85,4.05,17.94l-.43-3.19c1.18,9.06,1.17,18.23-.03,27.29l.43-3.19c-.19,1.39-.41,2.78-.65,4.16h23.14c-1.47-7.6-2.72-15.25-3.76-22.92l.43,3.19c-3.65-27.41-4.46-55.18-2.4-82.75.58-7.81,1.4-15.61,2.44-23.37l-.43,3.19c1.74-12.85,4.09-25.61,7.06-38.24h-23.14c.91,3.23,1.56,6.51,2.02,9.83l-.43-3.19c1.63,12.3.7,24.8.22,37.15s-1,25.68-1.49,38.51c-.29,7.36-.57,14.73-.86,22.09h24c.27-28.84.54-57.68.82-86.53.07-7.64.17-15.3,1.16-22.89l-.43,3.19c.48-3.51,1.15-6.99,2.09-10.41h-23.14c1.29,3.95,2.18,8,2.75,12.12l-.43-3.19c1.88,14.33-.01,28.88-1.91,43.1l.43-3.19c-2.72,20.2-6.51,40.25-11.36,60.04-1.37,5.59-2.83,11.16-4.36,16.71,7.86,1.06,15.71,2.13,23.57,3.19-.18-7.73.25-15.45,1.25-23.11l-.43,3.19c1.79-13.33,5.35-26.37,10.57-38.76l-1.21,2.87c2.43-5.72,5.21-11.28,8.32-16.66-7.31-.96-14.62-1.91-21.93-2.87.22,1.2.42,2.4.58,3.6l-.43-3.19c.83,6.51.69,13.07-.17,19.57l.43-3.19c-1.62,11.67-5.43,22.88-9.97,33.7l1.21-2.87c-1.3,3.07-2.66,6.12-4.05,9.15,7.31.96,14.62,1.91,21.93,2.87-5.06-19.02-9.19-38.29-12.36-57.72-.9-5.51-1.72-11.04-2.46-16.57l.43,3.19c-.92-6.9-1.73-13.81-2.41-20.73-.27-2.74-.85-5.04-2.58-7.27-1.53-1.98-3.72-3.73-6.23-4.3-5.35-1.22-10.58.87-13.55,5.51-2.71,4.24-4.09,9.52-4.02,14.54.07,5.34,1.57,10.17,3.83,14.94,3.62,7.62,10.55,14.04,18.08,17.71,7.83,3.82,16.72,5.97,25.46,5.08,9.6-.98,19.63-4.1,25.99-11.83,3.71-4.51,6.57-9.98,6.23-16.01-.42-7.35-4.38-13.2-10.48-17.14-3.92-2.53-8.66-4.03-13.05-5.54-3.75-1.29-7.57-2.39-11.42-3.33-16.88-4.13-34.38-5.41-51.69-6.08-18.64-.73-37.36-.78-55.88-3.27l3.19.43c-7.11-.97-14.16-2.31-21.1-4.17v23.14c22.94-5.83,45.88-11.66,68.82-17.49,4.61-1.17,7.98-5.39,8.6-9.98.29-2.2.04-4.18-.82-6.22-.95-2.25-2.64-4.62-4.91-5.74-7.85-3.87-16.12-5.44-24.83-5.82-7.28-.31-14.61.03-21.89.21-15.21.38-30.42.94-45.62,1.7-8.63.43-17.26.92-25.88,1.48-3.2.2-6.17,1.2-8.49,3.51-2.08,2.08-3.65,5.5-3.51,8.49.29,6.48,5.27,12.03,12,12,34.37-.13,68.74.26,103.1,1.17,9.7.26,19.39.56,29.08.9V-5.39c-21.89,2.01-43.7,5.13-65.26,9.4-5.87,1.17-11.73,2.42-17.57,3.76-2.74.63-5.86,3.03-7.17,5.51s-1.79,4.92-1.42,7.65c.76,5.65,5.79,10.66,11.79,10.4,19.69-.84,39.37-1.96,59.03-3.37s40.38-2.83,60.41-5.58c10.35-1.42,20.62-3.52,30.45-7.14,2.86-1.05,5.68-2.7,7.17-5.51,1.28-2.42,1.79-4.92,1.42-7.65-.77-5.7-5.79-10.6-11.79-10.4-24.73.79-49.34,3.34-73.84,6.77-23.65,3.31-47.16,7.58-70.59,12.2-13.26,2.61-26.5,5.34-39.74,8.07-2.72.56-5.89,3.08-7.17,5.51s-1.79,4.92-1.42,7.65c.79,5.86,5.77,10.38,11.79,10.4,33.82.17,67.63-2.79,100.95-8.53,9.25-1.59,18.45-3.42,27.6-5.48,2.74-.61,5.86-3.04,7.17-5.51s1.79-4.92,1.42-7.65c-.81-6.03-5.76-10.13-11.79-10.4-23.51-1.05-47.04.11-70.5,1.6-23.38,1.49-46.76,3.29-70.2,3.5-6.56.06-13.12,0-19.68-.25-6.35-.23-12.76-.46-19.07-1.26l3.19.43c-2.57-.35-5.1-.88-7.51-1.86l2.87,1.21c-1.38-.6-2.66-1.33-3.86-2.25l2.43,1.88-.35-.29-2.43,18.85c1.09-.5,2.19-.98,3.29-1.45l-2.87,1.21c16.04-6.74,33.25-9.85,50.4-12.17l-3.19.43c4.27-.57,8.54-1.1,12.81-1.63,1.65.06,3.19-.28,4.62-1.03,1.49-.48,2.78-1.31,3.86-2.48,2.08-2.08,3.65-5.5,3.51-8.49s-1.16-6.32-3.51-8.49-5.3-3.69-8.49-3.51c-27.68,1.52-55.26,4.36-82.69,8.3C12.21-1.95,4.66-.77-2.87.51c-2.79.47-5.8,3.17-7.17,5.51-1.51,2.57-2.14,6.36-1.21,9.25s2.74,5.71,5.51,7.17c3.01,1.59,5.9,1.78,9.25,1.21h0Z"/>
  <path class="cls-1" d="m182.87,143.48c3.08,0,6.31-1.34,8.49-3.51s3.65-5.5,3.51-8.49c-.29-6.5-5.27-12-12-12-3.08,0-6.31,1.34-8.49,3.51s-3.65,5.5-3.51,8.49c.29,6.5,5.27,12,12,12h0Z"/>
  <path class="cls-2" d="m97.32,132.35c7.07,4.66,15.81,3.6,23.63,2.05,6.67-1.32,12.97-3.61,19.2-6.29,5.24-2.26,10.38-5.04,14.97-8.45,2.6-1.94,4.53-3.55,6.33-6.29,1.68-2.56,2.49-5.79,2.44-8.83-.1-5.98-3.72-11.06-8.71-14.07-2.95-1.79-6.22-2.69-9.59-3.17-4-.57-7.95-.99-11.99-.87-7.21.22-14.47,1.51-21.43,3.37-6.12,1.64-12.11,3.74-18.06,5.89-4.86,1.75-9.46,3.91-12.23,8.55-3.41,5.71-2.68,12.44.3,18.12,4.55,8.64,14.96,13.03,24.37,12.57,8.37-.41,16.82-3.16,23.77-7.85,2.61-1.76,4.66-4.07,5.51-7.17.79-2.87.43-6.7-1.21-9.25s-4.11-4.82-7.17-5.51-6.58-.59-9.25,1.21c-2.06,1.39-4.23,2.57-6.52,3.54l2.87-1.21c-2.87,1.18-5.84,2.02-8.91,2.46l3.19-.43c-1.98.25-3.95.32-5.94.09l3.19.43c-1.43-.2-2.81-.53-4.14-1.07l2.87,1.21c-1.14-.49-2.19-1.1-3.17-1.85l2.43,1.88c-.76-.62-1.44-1.29-2.06-2.06l1.88,2.43c-.51-.69-.94-1.4-1.3-2.18l1.21,2.87c-.31-.75-.53-1.5-.64-2.32l.43,3.19c-.03-.43-.03-.82,0-1.25l-.43,3.19c.07-.43.17-.79.33-1.19l-1.21,2.87c.16-.31.32-.58.52-.87l-1.88,2.43c.3-.35.61-.65.96-.93l-2.43,1.88c.67-.48,1.38-.85,2.14-1.17l-2.87,1.21c4.96-2.02,10.13-3.68,15.25-5.24,5.27-1.61,10.63-2.93,16.09-3.69l-3.19.43c5.08-.67,10.2-.81,15.29-.16l-3.19-.43c1.92.26,3.82.57,5.62,1.31l-2.87-1.21c.8.36,1.55.78,2.25,1.32l-2.43-1.88c.39.33.74.68,1.06,1.08l-1.88-2.43c.22.32.4.65.56,1.01l-1.21-2.87c.1.28.16.54.21.84l-.43-3.19c.03.31.03.6,0,.91l.43-3.19c-.06.38-.14.7-.27,1.06l1.21-2.87c-.21.45-.45.85-.75,1.25l1.88-2.43c-.5.59-1.05,1.09-1.65,1.57l2.43-1.88c-4.77,3.62-10.22,6.49-15.72,8.82l2.87-1.21c-6.36,2.66-13.06,4.6-19.9,5.53l3.19-.43c-1.85.23-3.69.34-5.55.14l3.19.43c-1.03-.14-2.01-.38-2.98-.76l2.87,1.21c-.6-.26-1.15-.56-1.7-.92-2.52-1.66-6.4-1.99-9.25-1.21s-5.8,2.92-7.17,5.51c-1.47,2.78-2.21,6.16-1.21,9.25s2.81,5.39,5.51,7.17h0Z"/>
</svg>