<?xml version="1.0" encoding="UTF-8"?>
<svg id="Layer_1" data-name="Layer 1" xmlns="http://www.w3.org/2000/svg" viewBox="0 0 250 250">
  <defs>
    <style>
      .cls-1 {
        stroke-width: 0px;
      }
    </style>
  </defs>
  <path class="cls-1" d="m16.63,51.82c28.05-3.34,56.22-5.67,84.43-6.98,28.22-1.31,56.48-1.6,84.72-.87,15.81.41,31.6,1.14,47.38,2.18v-24c-19.19.26-38.3-1.79-57.31-4.2-19.02-2.42-38.03-5.2-57.18-6.38-10.81-.66-21.65-.79-32.46-.07-3.88.26-7.02,1.62-9.42,4.73s-2.86,6.56-2.15,10.46c1.94,10.69,3.64,21.43,5.09,32.2l-.43-3.19c3.08,22.99,5.04,46.13,5.85,69.32.81,23.1.48,46.25-.99,69.32-.83,13.03-2.02,26.04-3.57,39.01-.34,2.84,1.59,6.56,3.51,8.49,2.08,2.08,5.5,3.65,8.49,3.51s6.32-1.16,8.49-3.51l1.88-2.43c1.09-1.87,1.63-3.89,1.64-6.06,3.26-27.3,4.93-54.79,4.99-82.29.06-27.5-1.49-55-4.65-82.31-1.87-16.21-4.23-32.37-7.15-48.43-3.86,5.06-7.71,10.13-11.57,15.19,19.11-1.27,38.25.15,57.24,2.34,19.08,2.2,38.07,5.15,57.2,6.89,10.81.98,21.66,1.57,32.51,1.42,3.1-.04,6.28-1.31,8.49-3.51,2.08-2.08,3.65-5.5,3.51-8.49s-1.16-6.32-3.51-8.49-5.17-3.3-8.49-3.51c-28.19-1.87-56.44-2.72-84.68-2.55s-56.49,1.36-84.65,3.56c-15.76,1.23-31.5,2.79-47.2,4.66-1.65-.06-3.19.28-4.62,1.03-1.49.48-2.78,1.31-3.86,2.48-2.08,2.08-3.65,5.5-3.51,8.49s1.16,6.32,3.51,8.49c2.18,2,5.4,3.88,8.49,3.51h0Z"/>
</svg>